<svg width="241" height="43" viewBox="0 0 241 43" fill="none" xmlns="http://www.w3.org/2000/svg">
<path d="M3.27734 4.75391L3.23828 4.96875C3.19922 5.1901 3.01693 5.41146 2.69141 5.63281C2.36589 5.85417 2.04036 5.96484 1.71484 5.96484C0.894531 5.96484 0.484375 5.57422 0.484375 4.79297C0.484375 4.51953 0.692708 4.1875 1.10938 3.79688C1.53906 3.39323 2.10547 3.11328 2.80859 2.95703C3.52474 2.80078 4.03255 2.65104 4.33203 2.50781C4.64453 2.35156 5.11979 2.23438 5.75781 2.15625C5.86198 2.26042 5.96615 2.3125 6.07031 2.3125C6.23958 2.3125 6.35677 2.25391 6.42188 2.13672C6.48698 2.01953 6.63672 1.98698 6.87109 2.03906H6.96875L8.00391 1.76562L8.31641 1.88281C8.36849 1.88281 8.42708 1.85677 8.49219 1.80469C8.57031 1.7526 8.66146 1.71354 8.76562 1.6875H9.07812L9.44922 1.60938C9.73568 1.53125 9.90495 1.47266 9.95703 1.43359L10.2891 1.47266C10.5365 1.47266 10.9401 1.40755 11.5 1.27734C12.0729 1.14714 12.5026 1.07552 12.7891 1.0625C13.0885 1.04948 13.3034 1.02995 13.4336 1.00391C13.5768 0.977865 13.6615 0.964844 13.6875 0.964844C13.7656 0.964844 13.8633 1.00391 13.9805 1.08203C14.0977 1.16016 14.1823 1.19922 14.2344 1.19922C14.2865 1.19922 14.651 1.12109 15.3281 0.964844H15.4453L16.3242 1.16016C16.5586 1.02995 16.7148 0.964844 16.793 0.964844C17.0664 0.964844 17.2943 1.05599 17.4766 1.23828L17.8477 1.08203L18.043 1.12109C18.1211 1.12109 18.2383 1.10807 18.3945 1.08203H18.5508C18.6419 1.08203 18.7396 1.09505 18.8438 1.12109C18.8698 1.14714 18.8958 1.16016 18.9219 1.16016C19.0521 1.16016 19.1562 1.14714 19.2344 1.12109H19.4883L20.3281 1.31641L20.6797 1.27734C20.7057 1.27734 20.7839 1.31641 20.9141 1.39453L21.1289 1.35547C21.2591 1.44661 21.4935 1.57031 21.832 1.72656C21.8971 1.70052 21.9948 1.67448 22.125 1.64844H22.1641C22.1901 1.64844 22.3203 1.72656 22.5547 1.88281L23.1211 2.15625L23.2773 2.07812C23.6419 2.26042 23.8307 2.36458 23.8438 2.39062L24 2.72266C24.1562 2.80078 24.332 2.90495 24.5273 3.03516C24.5664 3.16536 24.6445 3.3151 24.7617 3.48438V3.64062C24.7617 3.66667 24.8594 3.76432 25.0547 3.93359C25.263 4.08984 25.3672 4.20703 25.3672 4.28516C25.3672 4.3112 25.3542 4.40234 25.3281 4.55859V4.59766C25.3281 4.6237 25.3737 4.70833 25.4648 4.85156C25.556 4.99479 25.6016 5.16406 25.6016 5.35938L25.5625 5.63281L25.6016 5.88672L25.4062 7.19531C25.2891 7.32552 25.2109 7.45573 25.1719 7.58594C25.1328 7.70312 25.0352 7.79427 24.8789 7.85938C24.7227 7.92448 24.5924 8.0612 24.4883 8.26953C24.3971 8.46484 24.2604 8.59505 24.0781 8.66016C23.8958 8.72526 23.7201 8.84245 23.5508 9.01172C23.3945 9.16797 23.2122 9.24609 23.0039 9.24609L20.9141 9.87109L20.6797 9.79297C20.4453 10.1706 20.1003 10.3594 19.6445 10.3594C19.5273 10.3594 19.2669 10.4049 18.8633 10.4961L18.4727 10.5938L18.1602 10.5547L17.4375 10.6914C17.2161 10.7305 17.0534 10.7826 16.9492 10.8477C16.8451 10.8997 16.7148 10.9258 16.5586 10.9258L16.0312 11.1992C16.0052 11.2253 15.9661 11.2383 15.9141 11.2383C15.8099 11.2383 15.7448 11.2253 15.7188 11.1992L15.4453 11.1211C15.3411 11.1471 15.2435 11.1927 15.1523 11.2578C15.0742 11.3229 14.9961 11.3555 14.918 11.3555L14.6836 11.1602L14.3125 11.4727C14.1562 11.4987 13.9479 11.5573 13.6875 11.6484C13.5182 11.5573 13.4076 11.5117 13.3555 11.5117L12.6719 11.8047L12.2812 11.6875L12.2422 11.8047C12.0599 11.8047 11.8711 11.8698 11.6758 12C11.4935 12.1302 11.3372 12.1953 11.207 12.1953C11.1159 12.1953 11.0182 12.1432 10.9141 12.0391C10.862 12.0391 10.8099 12.013 10.7578 11.9609C10.6276 12.0521 10.5299 12.1497 10.4648 12.2539C10.3997 12.3451 10.2565 12.4362 10.0352 12.5273L9.56641 12.3906C9.56641 12.4297 9.44271 12.5013 9.19531 12.6055C8.94792 12.6966 8.81771 12.7747 8.80469 12.8398L8.60938 13.1133C8.51823 13.3346 8.44661 13.5169 8.39453 13.6602C8.34245 13.8034 8.27734 13.9206 8.19922 14.0117C8.12109 14.0898 8.04948 14.2331 7.98438 14.4414C7.91927 14.6497 7.80208 14.8776 7.63281 15.125L7.59375 15.3594C7.51562 15.4635 7.39844 15.5807 7.24219 15.7109L6.79297 16.5508C6.66276 16.7461 6.59766 16.8828 6.59766 16.9609C6.59766 17.1562 6.77344 17.3451 7.125 17.5273L9.19531 19.2852L9.52734 19.4805H9.56641L9.48828 19.832C9.59245 19.8971 9.65755 19.9297 9.68359 19.9297C9.76172 19.9297 9.80078 19.8711 9.80078 19.7539H9.91797C9.94401 19.7539 10.0091 19.8125 10.1133 19.9297L10.3281 20.0469C10.4193 20.138 10.5885 20.2878 10.8359 20.4961C11.0833 20.7044 11.207 20.8477 11.207 20.9258L11.168 21.082H11.2852C11.3372 21.0299 11.3763 21.0039 11.4023 21.0039C11.4544 21.0039 11.5977 21.082 11.832 21.2383L12.0859 21.3555C12.6068 21.7331 12.9193 21.987 13.0234 22.1172C13.1406 22.2474 13.3034 22.3971 13.5117 22.5664C13.7331 22.7227 13.9089 22.9049 14.0391 23.1133L16.2852 24.793C18.1602 26.1992 19.2148 27.1367 19.4492 27.6055C19.5013 27.6836 19.625 27.7617 19.8203 27.8398C20.0156 27.918 20.2956 28.1328 20.6602 28.4844C21.0247 28.849 21.2461 29.1289 21.3242 29.3242V30.0078C21.3242 30.0599 21.2591 30.125 21.1289 30.2031L20.875 30.4375C20.5365 30.7891 20.2435 30.9648 19.9961 30.9648C19.3841 30.9648 18.9349 30.8281 18.6484 30.5547L18.5508 30.5156H18.3555C18.1471 30.5156 18.0299 30.3333 18.0039 29.9688L17.9258 29.7148C17.2747 29.5065 16.7799 29.1745 16.4414 28.7188L15.3281 27.6836C15.3021 27.6576 15.0872 27.4102 14.6836 26.9414C14.2799 26.4596 13.9219 26.1146 13.6094 25.9062C13.3099 25.6979 13.069 25.4831 12.8867 25.2617C12.7174 25.0404 12.4831 24.832 12.1836 24.6367C11.8971 24.4414 11.5911 24.1159 11.2656 23.6602C10.9401 23.1914 10.7578 22.944 10.7188 22.918C10.1328 22.6055 9.85286 22.2604 9.87891 21.8828C9.80078 21.8307 9.61198 21.7786 9.3125 21.7266C9.15625 21.5573 9.05859 21.4661 9.01953 21.4531C8.98047 21.4401 8.94792 21.4206 8.92188 21.3945L8.96094 21.082C8.57031 20.9648 8.29688 20.8216 8.14062 20.6523C7.98438 20.4701 7.77604 20.2292 7.51562 19.9297C7.25521 19.6302 7.02734 19.4023 6.83203 19.2461C6.64974 19.0768 6.55208 18.9466 6.53906 18.8555C6.52604 18.7643 6.40234 18.6536 6.16797 18.5234C6.07682 18.6797 5.97917 18.8034 5.875 18.8945C5.77083 18.9857 5.69271 19.0898 5.64062 19.207L5.5625 19.3242C5.38021 19.5065 5.28906 19.7083 5.28906 19.9297C5.09375 20.0859 4.97005 20.3659 4.91797 20.7695L4.03906 22.7617L3.88281 23.4844L3.76562 24.7148C3.72656 25.0664 3.57682 25.2422 3.31641 25.2422L2.92578 25.2812C2.82161 25.2292 2.57422 25.1836 2.18359 25.1445C1.80599 25.0924 1.49349 24.7083 1.24609 23.9922C1.22005 23.9141 1.14193 23.7839 1.01172 23.6016C0.894531 23.4193 0.835938 23.2565 0.835938 23.1133C0.835938 23.0091 0.875 22.8398 0.953125 22.6055L1.03125 22.1562C1.03125 22.0781 1.19401 21.707 1.51953 21.043L2.55469 19.0703L3.0625 18.3086C3.1276 18.2044 3.19922 18.0091 3.27734 17.7227C3.35547 17.4232 3.47266 17.1758 3.62891 16.9805C3.79818 16.7852 3.88281 16.6419 3.88281 16.5508C3.88281 16.3945 3.75911 16.2383 3.51172 16.082C3.27734 15.9258 3.14714 15.776 3.12109 15.6328L3.04297 15.4375C2.35286 15.0339 2.00781 14.5781 2.00781 14.0703C2.00781 13.7969 2.35286 13.4583 3.04297 13.0547C3.73307 12.638 4.19531 12.4036 4.42969 12.3516C4.67708 12.2995 4.91797 12.2083 5.15234 12.0781L5.48438 12L5.75781 11.7656C5.91406 11.7135 6.10286 11.668 6.32422 11.6289C6.55859 11.5768 6.75391 11.3099 6.91016 10.8281C7.07943 10.3333 7.22917 10.0469 7.35938 9.96875C7.61979 9.4349 7.79557 9.03125 7.88672 8.75781C7.91276 8.70573 7.98438 8.58854 8.10156 8.40625C8.23177 8.21094 8.36198 7.89844 8.49219 7.46875C8.6224 7.02604 8.71354 6.80469 8.76562 6.80469C8.81771 6.80469 8.92188 6.77865 9.07812 6.72656L8.88281 6.19922C8.88281 6.14714 8.9349 6.06901 9.03906 5.96484C8.85677 5.74349 8.76562 5.47656 8.76562 5.16406C8.76562 4.65625 9.1237 4.40234 9.83984 4.40234C9.97005 4.40234 10.2305 4.51953 10.6211 4.75391C11.0117 4.97526 11.2201 5.13802 11.2461 5.24219C11.2721 5.34635 11.3568 5.51562 11.5 5.75C11.6432 5.97135 11.7148 6.16016 11.7148 6.31641C11.7148 6.82422 11.6302 7.15625 11.4609 7.3125C11.2917 7.46875 11.1159 7.8138 10.9336 8.34766L10.4062 9.83203L10.3281 10.2031L10.2305 10.3594L10.7188 10.2422C10.8229 9.95573 11.2656 9.79297 12.0469 9.75391L13.2773 9.36328H13.6484L14.8398 9.03125C14.8919 9.03125 15.0807 9.00521 15.4062 8.95312H15.5234L15.7578 8.91406C15.8099 8.9401 15.862 8.99219 15.9141 9.07031H15.9922C16.1354 9.07031 16.2135 8.98568 16.2266 8.81641C16.2396 8.64714 16.4284 8.5625 16.793 8.5625C16.8451 8.5625 16.8906 8.59505 16.9297 8.66016C16.9818 8.72526 17.0339 8.75781 17.0859 8.75781C17.112 8.61458 17.2096 8.51693 17.3789 8.46484C17.5612 8.39974 17.6914 8.36719 17.7695 8.36719L18.082 8.40625C18.056 8.38021 18.043 8.34115 18.043 8.28906C18.043 8.17188 18.4401 8.04818 19.2344 7.91797C19.4557 7.83984 19.6315 7.74219 19.7617 7.625C19.8919 7.50781 20.3021 7.33854 20.9922 7.11719L22.1641 6.76562C22.6458 6.60938 22.9779 6.14062 23.1602 5.35938C23.1341 5.33333 23.0169 5.15755 22.8086 4.83203C22.8086 4.80599 22.7109 4.79297 22.5156 4.79297C22.4635 4.74089 22.3724 4.68229 22.2422 4.61719C22.112 4.53906 21.9622 4.41536 21.793 4.24609L21.5586 4.32422C21.3763 4.22005 21.1615 4.14193 20.9141 4.08984C20.6797 4.02474 20.4258 3.88802 20.1523 3.67969C20.0482 3.73177 19.9831 3.75781 19.957 3.75781C19.931 3.75781 19.7878 3.69271 19.5273 3.5625L19 3.32812H18.6875L18.5508 3.28906C18.4727 3.19792 18.4076 3.15234 18.3555 3.15234L18.1602 3.19141C18.1081 3.21745 18.043 3.23047 17.9648 3.23047H17.6328C17.6068 3.23047 17.5026 3.16536 17.3203 3.03516H16.6758L16.3242 3.11328C16.2721 3.11328 16.1875 3.0612 16.0703 2.95703L15.7188 3.03516L15.3672 2.87891L14.8398 2.95703C14.7357 2.87891 14.6576 2.83984 14.6055 2.83984L13.043 2.99609C12.9909 2.99609 12.9453 2.97005 12.9062 2.91797C12.8672 2.86589 12.8021 2.82682 12.7109 2.80078C12.6328 2.77474 12.5417 2.72266 12.4375 2.64453C12.1641 2.80078 11.8971 2.87891 11.6367 2.87891L11.0312 2.80078L10.9141 2.83984H10.8359C10.8099 2.83984 10.6927 2.8138 10.4844 2.76172C10.4844 2.8138 10.4714 2.85286 10.4453 2.87891L10.1523 2.80078L9.07812 2.99609H9.03906L8.84375 2.95703C8.79167 2.95703 8.71354 2.97656 8.60938 3.01562C8.51823 3.05469 8.44661 3.07422 8.39453 3.07422L7.96484 3.03516L7.63281 3.11328L7.16406 3.07422L6.75391 3.36719H6.67578C6.6237 3.36719 6.5651 3.34766 6.5 3.30859C6.4349 3.25651 6.38932 3.23047 6.36328 3.23047L6.07031 3.28906L5.83594 3.23047C5.78385 3.23047 5.67969 3.35417 5.52344 3.60156C5.52344 3.6276 5.4974 3.64062 5.44531 3.64062H5.40625L5.11328 3.5625C5.0612 3.5625 4.95703 3.65365 4.80078 3.83594C4.55339 3.92708 4.3125 4.02474 4.07812 4.12891C3.89583 4.38932 3.73958 4.54557 3.60938 4.59766L3.27734 4.75391ZM4.56641 13.9922H4.07812C4 13.9922 3.85677 14.0703 3.64844 14.2266C3.45312 14.3698 3.35547 14.4674 3.35547 14.5195C3.35547 14.5716 3.50521 14.7214 3.80469 14.9688C4.11719 15.2031 4.3125 15.3203 4.39062 15.3203C4.625 15.3203 4.90495 14.7865 5.23047 13.7188L5.03516 13.7969L4.80078 13.7578C4.64453 13.888 4.56641 13.9661 4.56641 13.9922ZM29.3125 8.91406L29.1953 8.15234V8.03516C29.1953 7.42318 29.4036 7.08464 29.8203 7.01953C29.9115 7.00651 30.1849 6.92188 30.6406 6.76562C30.875 6.81771 31.1159 7.02604 31.3633 7.39062C31.6237 7.74219 31.7539 8.05469 31.7539 8.32812C31.7539 8.35417 31.7344 8.41276 31.6953 8.50391C31.6562 8.59505 31.6302 8.77083 31.6172 9.03125C31.6042 9.27865 31.474 9.5 31.2266 9.69531C30.9922 9.8776 30.7383 9.96875 30.4648 9.96875C30.2826 9.96875 30.0482 9.84505 29.7617 9.59766C29.4883 9.33724 29.3385 9.10938 29.3125 8.91406ZM20.875 18.6797L21.1875 18.4062H21.3047C21.3958 18.4062 21.5326 18.3086 21.7148 18.1133L21.9102 18.0352C22.1706 17.6445 22.3984 17.4167 22.5938 17.3516L22.9062 17.1172C22.9583 17.0651 23.0299 17.0195 23.1211 16.9805C23.2253 16.9414 23.3815 16.8177 23.5898 16.6094C23.8112 16.388 23.987 16.2773 24.1172 16.2773C24.2474 16.2773 24.3516 16.2904 24.4297 16.3164C24.5078 16.1602 24.6641 16.0104 24.8984 15.8672C25.1328 15.7109 25.3216 15.5286 25.4648 15.3203L25.7188 15.2031C25.9271 15.099 26.1094 14.9688 26.2656 14.8125C26.4349 14.6432 26.6497 14.5586 26.9102 14.5586C27.2878 14.5586 27.6784 14.7539 28.082 15.1445C28.4987 15.5221 28.707 15.8867 28.707 16.2383L28.375 17.7617C28.1536 18.8815 27.9062 19.4674 27.6328 19.5195L27.5547 19.9297C27.3724 20.0599 27.2812 20.1641 27.2812 20.2422L27.3984 20.7109C27.3984 20.776 27.3268 20.8737 27.1836 21.0039C27.1576 21.0039 27.1445 21.043 27.1445 21.1211V21.9219C27.1445 22.0651 27.0534 22.1823 26.8711 22.2734C26.8971 22.2995 26.9362 22.3255 26.9883 22.3516C27.0664 22.2734 27.2422 22.2344 27.5156 22.2344L27.8281 22.2734L28.2578 21.8438C28.349 21.8177 28.4727 21.7591 28.6289 21.668C28.7982 21.5638 29.0781 21.4336 29.4688 21.2773L32.0273 19.3242C32.3789 18.9727 32.6458 18.7969 32.8281 18.7969C33.0234 18.7969 33.1211 18.9206 33.1211 19.168C33.1211 19.4544 33.0625 19.6953 32.9453 19.8906C32.8411 20.0729 32.7435 20.3008 32.6523 20.5742C32.5612 20.8346 32.4505 21.0169 32.3203 21.1211C32.2031 21.2253 32.1055 21.3424 32.0273 21.4727C31.9492 21.5898 31.7344 21.7656 31.3828 22C31.0443 22.2344 30.7513 22.4753 30.5039 22.7227C30.2695 22.957 30.0742 23.1263 29.918 23.2305L29.0781 23.8359L28.9609 24.0312C28.9349 24.0573 28.8112 24.1159 28.5898 24.207C28.3815 24.2852 28.1927 24.3893 28.0234 24.5195L27.6719 24.7148C27.5938 24.7669 27.4635 24.7995 27.2812 24.8125C27.112 24.8255 26.9622 24.9036 26.832 25.0469C26.7018 25.1771 26.5977 25.2422 26.5195 25.2422L26.2266 25.2031L25.8359 25.3203C25.6146 25.3203 25.3411 25.1901 25.0156 24.9297C24.7031 24.6562 24.5469 24.3698 24.5469 24.0703V23.9531L24.5859 23.6797C24.5859 23.6276 24.5469 23.4974 24.4688 23.2891C24.3906 23.0677 24.3516 22.944 24.3516 22.918L24.3906 22.6445L24.3516 22.5273C24.3516 22.1758 24.3776 21.9544 24.4297 21.8633C24.4818 21.7721 24.5208 21.6484 24.5469 21.4922C24.5729 21.3229 24.599 21.1862 24.625 21.082L24.7227 20.5938C24.7747 20.4375 24.8398 20.3333 24.918 20.2812C24.944 20.1771 24.9961 20.0013 25.0742 19.7539L25.1523 19.4023L25.3477 19.1289C25.4518 19.0247 25.5104 18.888 25.5234 18.7188C25.5495 18.5365 25.6211 18.3477 25.7383 18.1523C25.8555 17.957 25.9141 17.8398 25.9141 17.8008C25.9141 17.6445 25.8359 17.5664 25.6797 17.5664C25.6276 17.5664 25.4648 17.6706 25.1914 17.8789L24.8398 17.7617C24.8138 17.7617 24.7422 17.8268 24.625 17.957C24.625 18.0091 24.5664 18.0482 24.4492 18.0742C24.332 18.1003 24.2214 18.1979 24.1172 18.3672L23.9609 18.4062L23.707 18.2891H23.6289C23.4987 18.2891 23.4206 18.4323 23.3945 18.7188C23.2513 18.9271 23.0625 19.0638 22.8281 19.1289L22.3984 19.2461C22.2552 19.2982 22.151 19.4154 22.0859 19.5977C22.0208 19.7799 21.8906 19.9492 21.6953 20.1055C21.5 20.2487 21.3698 20.3203 21.3047 20.3203C20.9401 20.3203 20.7578 20.1185 20.7578 19.7148L20.9141 18.7969L20.875 18.6797ZM34.7031 17.0391L34.7812 16.8828C35.2109 16.8828 35.4909 16.707 35.6211 16.3555L35.6992 16.2773C36.168 16.1211 36.5 15.9453 36.6953 15.75C36.9036 15.5417 37.2682 15.3529 37.7891 15.1836C38.3229 15.0143 38.6029 14.9297 38.6289 14.9297C38.707 14.9297 38.9414 15.0469 39.332 15.2812C39.7357 15.5156 39.9375 15.9583 39.9375 16.6094C39.9375 17.0781 39.8073 17.5143 39.5469 17.918V18.5234L39.5078 18.6797C39.2865 18.8359 39.1758 19.0117 39.1758 19.207V19.3633L39.2148 19.9297L38.668 21.1211C38.4466 21.2253 38.3359 21.3164 38.3359 21.3945C38.3359 21.4466 38.388 21.5117 38.4922 21.5898C38.6094 21.6549 38.668 21.7526 38.668 21.8828C38.668 22.026 38.6289 22.293 38.5508 22.6836C38.5768 22.7096 38.6029 22.7227 38.6289 22.7227H38.707C38.7591 22.6185 38.8633 22.5404 39.0195 22.4883L39.2148 22.3516C39.2409 22.2083 39.2865 22.1042 39.3516 22.0391H39.5859C39.6901 22.0391 39.7422 21.9349 39.7422 21.7266C39.7422 21.6484 40.0286 21.3164 40.6016 20.7305C41.1745 20.1315 41.5195 19.7474 41.6367 19.5781C41.7669 19.4089 41.9036 19.2721 42.0469 19.168C42.1901 19.0508 42.2747 18.9336 42.3008 18.8164C42.3268 18.6992 42.3984 18.5885 42.5156 18.4844C42.6458 18.3802 42.75 18.276 42.8281 18.1719C42.9062 18.0547 43.0169 17.9505 43.1602 17.8594C43.3034 17.7682 43.4466 17.612 43.5898 17.3906C43.7461 17.1693 44.0651 16.8568 44.5469 16.4531C44.625 16.388 44.7161 16.2708 44.8203 16.1016C44.9245 15.9323 45.1133 15.763 45.3867 15.5938C45.6732 15.4115 45.9401 15.1966 46.1875 14.9492C46.4479 14.6888 46.8841 14.5586 47.4961 14.5586C47.8477 14.5586 48.1862 14.7279 48.5117 15.0664C48.8503 15.3919 49.0195 15.7305 49.0195 16.082C49.0195 16.2643 48.987 16.4076 48.9219 16.5117C48.8568 16.6029 48.7461 16.7656 48.5898 17C48.4466 17.2344 48.3099 17.3516 48.1797 17.3516L47.8281 17.2344C47.5807 17.4818 47.3268 17.6055 47.0664 17.6055L46.6953 17.5273C46.4609 17.6836 46.2721 17.7682 46.1289 17.7812C45.9857 17.7943 45.862 17.8724 45.7578 18.0156C45.6667 18.1589 45.5625 18.2435 45.4453 18.2695C45.3281 18.2826 45.1979 18.3411 45.0547 18.4453L44.7422 18.6016C44.612 18.9271 44.332 19.168 43.9023 19.3242C43.7461 19.4805 43.6029 19.6628 43.4727 19.8711C43.4727 19.9102 43.4076 19.9622 43.2773 20.0273C43.1602 20.0924 43.0365 20.2096 42.9062 20.3789C42.776 20.5482 42.6719 20.6328 42.5938 20.6328H42.418C42.3138 20.75 42.2357 20.9323 42.1836 21.1797C42.1315 21.4271 41.9167 21.5964 41.5391 21.6875C41.487 21.7135 41.4089 21.8112 41.3047 21.9805C41.2005 22.1367 41.0508 22.2604 40.8555 22.3516C40.7773 22.651 40.6081 22.8919 40.3477 23.0742L40.1133 23.4844C40.0482 23.6146 39.918 23.7448 39.7227 23.875C39.5404 23.9922 39.4427 24.0638 39.4297 24.0898C39.4167 24.1159 39.332 24.2917 39.1758 24.6172C39.0195 24.9297 38.8438 25.1315 38.6484 25.2227C38.4661 25.3138 38.2839 25.4635 38.1016 25.6719C37.9193 25.8672 37.763 25.9648 37.6328 25.9648C37.1771 25.9648 36.6888 25.5938 36.168 24.8516C35.6471 24.1094 35.3867 23.6406 35.3867 23.4453C35.3867 22.7161 35.4844 22.1497 35.6797 21.7461C35.888 21.3294 36.0117 20.9388 36.0508 20.5742C36.0898 20.1966 36.1615 19.8711 36.2656 19.5977L36.3828 18.9922L36.5391 18.7188C36.6302 18.6146 36.7083 18.4388 36.7734 18.1914L36.8711 17.8789C36.8711 17.6445 36.7995 17.5273 36.6562 17.5273C36.474 17.5273 36.3177 17.6445 36.1875 17.8789L36.1094 17.957C35.7839 17.8789 35.6146 17.8398 35.6016 17.8398C35.5104 17.8398 35.4258 18.0417 35.3477 18.4453C35.2956 18.5755 35.1654 18.6602 34.957 18.6992C34.7487 18.7383 34.5208 18.9466 34.2734 19.3242L34.1758 19.4023C34.0586 19.4284 33.9805 19.4544 33.9414 19.4805C33.7591 19.7799 33.6289 19.9297 33.5508 19.9297C33.4727 19.9297 33.388 19.8581 33.2969 19.7148C33.2188 19.5586 33.1146 19.4414 32.9844 19.3633C32.8542 19.2852 32.7891 19.1875 32.7891 19.0703C32.7891 18.7708 33.082 18.3867 33.668 17.918C33.7982 17.8138 33.8763 17.7161 33.9023 17.625C33.9284 17.5339 34.1042 17.4753 34.4297 17.4492C34.4818 17.4232 34.5729 17.2865 34.7031 17.0391ZM55.9141 8.91406L55.7969 8.15234V8.03516C55.7969 7.42318 56.0052 7.08464 56.4219 7.01953C56.513 7.00651 56.7865 6.92188 57.2422 6.76562C57.4766 6.81771 57.7174 7.02604 57.9648 7.39062C58.2253 7.74219 58.3555 8.05469 58.3555 8.32812C58.3555 8.35417 58.3359 8.41276 58.2969 8.50391C58.2578 8.59505 58.2318 8.77083 58.2188 9.03125C58.2057 9.27865 58.0755 9.5 57.8281 9.69531C57.5938 9.8776 57.3398 9.96875 57.0664 9.96875C56.8841 9.96875 56.6497 9.84505 56.3633 9.59766C56.0898 9.33724 55.9401 9.10938 55.9141 8.91406ZM47.4766 18.6797L47.7891 18.4062H47.9062C47.9974 18.4062 48.1341 18.3086 48.3164 18.1133L48.5117 18.0352C48.7721 17.6445 49 17.4167 49.1953 17.3516L49.5078 17.1172C49.5599 17.0651 49.6315 17.0195 49.7227 16.9805C49.8268 16.9414 49.9831 16.8177 50.1914 16.6094C50.4128 16.388 50.5885 16.2773 50.7188 16.2773C50.849 16.2773 50.9531 16.2904 51.0312 16.3164C51.1094 16.1602 51.2656 16.0104 51.5 15.8672C51.7344 15.7109 51.9232 15.5286 52.0664 15.3203L52.3203 15.2031C52.5286 15.099 52.7109 14.9688 52.8672 14.8125C53.0365 14.6432 53.2513 14.5586 53.5117 14.5586C53.8893 14.5586 54.2799 14.7539 54.6836 15.1445C55.1003 15.5221 55.3086 15.8867 55.3086 16.2383L54.9766 17.7617C54.7552 18.8815 54.5078 19.4674 54.2344 19.5195L54.1562 19.9297C53.974 20.0599 53.8828 20.1641 53.8828 20.2422L54 20.7109C54 20.776 53.9284 20.8737 53.7852 21.0039C53.7591 21.0039 53.7461 21.043 53.7461 21.1211V21.9219C53.7461 22.0651 53.6549 22.1823 53.4727 22.2734C53.4987 22.2995 53.5378 22.3255 53.5898 22.3516C53.668 22.2734 53.8438 22.2344 54.1172 22.2344L54.4297 22.2734L54.8594 21.8438C54.9505 21.8177 55.0742 21.7591 55.2305 21.668C55.3997 21.5638 55.6797 21.4336 56.0703 21.2773L58.6289 19.3242C58.9805 18.9727 59.2474 18.7969 59.4297 18.7969C59.625 18.7969 59.7227 18.9206 59.7227 19.168C59.7227 19.4544 59.6641 19.6953 59.5469 19.8906C59.4427 20.0729 59.3451 20.3008 59.2539 20.5742C59.1628 20.8346 59.0521 21.0169 58.9219 21.1211C58.8047 21.2253 58.707 21.3424 58.6289 21.4727C58.5508 21.5898 58.3359 21.7656 57.9844 22C57.6458 22.2344 57.3529 22.4753 57.1055 22.7227C56.8711 22.957 56.6758 23.1263 56.5195 23.2305L55.6797 23.8359L55.5625 24.0312C55.5365 24.0573 55.4128 24.1159 55.1914 24.207C54.9831 24.2852 54.7943 24.3893 54.625 24.5195L54.2734 24.7148C54.1953 24.7669 54.0651 24.7995 53.8828 24.8125C53.7135 24.8255 53.5638 24.9036 53.4336 25.0469C53.3034 25.1771 53.1992 25.2422 53.1211 25.2422L52.8281 25.2031L52.4375 25.3203C52.2161 25.3203 51.9427 25.1901 51.6172 24.9297C51.3047 24.6562 51.1484 24.3698 51.1484 24.0703V23.9531L51.1875 23.6797C51.1875 23.6276 51.1484 23.4974 51.0703 23.2891C50.9922 23.0677 50.9531 22.944 50.9531 22.918L50.9922 22.6445L50.9531 22.5273C50.9531 22.1758 50.9792 21.9544 51.0312 21.8633C51.0833 21.7721 51.1224 21.6484 51.1484 21.4922C51.1745 21.3229 51.2005 21.1862 51.2266 21.082L51.3242 20.5938C51.3763 20.4375 51.4414 20.3333 51.5195 20.2812C51.5456 20.1771 51.5977 20.0013 51.6758 19.7539L51.7539 19.4023L51.9492 19.1289C52.0534 19.0247 52.112 18.888 52.125 18.7188C52.151 18.5365 52.2227 18.3477 52.3398 18.1523C52.457 17.957 52.5156 17.8398 52.5156 17.8008C52.5156 17.6445 52.4375 17.5664 52.2812 17.5664C52.2292 17.5664 52.0664 17.6706 51.793 17.8789L51.4414 17.7617C51.4154 17.7617 51.3438 17.8268 51.2266 17.957C51.2266 18.0091 51.168 18.0482 51.0508 18.0742C50.9336 18.1003 50.8229 18.1979 50.7188 18.3672L50.5625 18.4062L50.3086 18.2891H50.2305C50.1003 18.2891 50.0221 18.4323 49.9961 18.7188C49.8529 18.9271 49.6641 19.0638 49.4297 19.1289L49 19.2461C48.8568 19.2982 48.7526 19.4154 48.6875 19.5977C48.6224 19.7799 48.4922 19.9492 48.2969 20.1055C48.1016 20.2487 47.9714 20.3203 47.9062 20.3203C47.5417 20.3203 47.3594 20.1185 47.3594 19.7148L47.5156 18.7969L47.4766 18.6797ZM62.2617 17.4883L62.6719 17.1562C62.9844 17.1302 63.1536 16.9674 63.1797 16.668C63.2057 16.3685 63.4206 16.1081 63.8242 15.8867L64.0586 15.5547C64.2539 15.3594 64.7878 15.1055 65.6602 14.793C65.8815 14.6628 66.0312 14.5456 66.1094 14.4414C66.1354 14.4154 66.1615 14.4023 66.1875 14.4023L66.5 14.4805C66.6693 14.4805 66.8841 14.4349 67.1445 14.3438C67.418 14.2526 67.6784 14.207 67.9258 14.207L68.7461 14.168C68.7982 14.168 68.9023 14.207 69.0586 14.2852C69.2279 14.3633 69.4297 14.4023 69.6641 14.4023C69.9505 14.4023 70.2109 14.5326 70.4453 14.793C70.6927 15.0534 70.8164 15.2943 70.8164 15.5156C70.8164 15.9193 70.6081 16.3294 70.1914 16.7461C69.7747 17.1628 69.4427 17.3971 69.1953 17.4492C68.974 17.6706 68.8047 17.8138 68.6875 17.8789C68.5703 17.931 68.4466 18.0221 68.3164 18.1523C68.1992 18.2695 68.1016 18.3281 68.0234 18.3281C67.9714 18.3281 67.9323 18.3151 67.9062 18.2891C67.8802 18.25 67.8411 18.2305 67.7891 18.2305C67.5807 18.2305 67.3529 18.4844 67.1055 18.9922L66.7539 18.9531C66.5326 19.0964 66.3893 19.2526 66.3242 19.4219C66.2591 19.5911 66.1224 19.6758 65.9141 19.6758C65.4323 20.1576 65.1068 20.3984 64.9375 20.3984C64.9115 20.3984 64.8203 20.3724 64.6641 20.3203C64.5599 20.4505 64.5078 20.5872 64.5078 20.7305C64.5078 20.8867 64.4036 20.9779 64.1953 21.0039L63.9414 21.2383L63.7461 21.1992L63.3555 21.6094C63.1602 21.6094 62.9583 21.6745 62.75 21.8047C62.724 21.9609 62.6849 22.1628 62.6328 22.4102C62.5807 22.6445 62.5547 22.7747 62.5547 22.8008C62.5547 23.1784 62.8997 23.3672 63.5898 23.3672L64.5273 23.2305C64.7747 23.2305 65.0026 23.1654 65.2109 23.0352C65.4323 22.9049 65.6667 22.8398 65.9141 22.8398C65.9922 22.8398 66.1094 22.8138 66.2656 22.7617L66.4609 22.8398C66.5521 22.6445 66.7214 22.4688 66.9688 22.3125C67.2161 22.1562 67.4115 22.0781 67.5547 22.0781L67.75 21.9609C67.8021 21.8047 67.8802 21.7005 67.9844 21.6484L68.1406 21.5117C68.2448 21.4076 68.3424 21.3555 68.4336 21.3555H68.707L68.7852 21.3164C68.9414 20.9779 69.1562 20.7826 69.4297 20.7305C69.7161 20.6654 69.8919 20.5677 69.957 20.4375C70.0352 20.3073 70.1654 20.2292 70.3477 20.2031C70.5299 20.1771 70.6797 20.0924 70.7969 19.9492C70.9271 19.793 71.0833 19.6497 71.2656 19.5195C71.4479 19.3893 71.5716 19.2917 71.6367 19.2266C71.7148 19.1615 71.7799 19.1289 71.832 19.1289C71.9102 19.1289 71.9492 19.1875 71.9492 19.3047C71.9492 19.4219 71.9753 19.4805 72.0273 19.4805C72.0794 19.4805 72.1055 19.4544 72.1055 19.4023C72.1055 19.3503 72.0924 19.2852 72.0664 19.207V19.0703C72.0664 18.875 72.1706 18.7448 72.3789 18.6797L73.2578 18.1133C73.2839 17.8398 73.3555 17.6836 73.4727 17.6445C73.6029 17.5924 73.7005 17.5404 73.7656 17.4883C73.8307 17.4232 73.9023 17.3906 73.9805 17.3906C74.1497 17.3906 74.2344 17.4883 74.2344 17.6836L74.1367 18.1914L74.2344 18.7188C74.2344 18.7969 74.1693 18.9076 74.0391 19.0508C73.9219 19.181 73.8307 19.3893 73.7656 19.6758C73.7005 19.9492 73.6159 20.099 73.5117 20.125H73.3945C73.1602 20.3724 72.9714 20.5221 72.8281 20.5742C72.6979 20.6133 72.5938 20.6914 72.5156 20.8086L71.8516 21.5703C71.7214 21.7005 71.6107 21.8177 71.5195 21.9219C71.4284 22.026 71.3568 22.0781 71.3047 22.0781L71.1484 21.9219C71.1484 21.8958 71.1224 21.8828 71.0703 21.8828C70.9401 21.8828 70.8555 21.9609 70.8164 22.1172C70.7904 22.2734 70.7253 22.4102 70.6211 22.5273C70.2305 22.7096 69.9766 22.8789 69.8594 23.0352L69.7422 23.0742H69.3906C69.2214 23.0742 69.1042 23.2044 69.0391 23.4648C68.974 23.7122 68.7852 23.8555 68.4727 23.8945C68.1732 23.9336 67.9583 24.0117 67.8281 24.1289C67.8021 24.1549 67.7435 24.181 67.6523 24.207C67.5612 24.2331 67.3789 24.3372 67.1055 24.5195L65.4648 25.1055C65.3346 25.1706 65.25 25.2031 65.2109 25.2031L64.6641 25.2812C64.5859 25.2812 64.5078 25.2292 64.4297 25.125C64.3516 25.0208 64.2995 24.9688 64.2734 24.9688L63.9219 25.0859C63.6615 25.1641 63.4141 25.2031 63.1797 25.2031C63.0495 25.2031 62.9062 25.1576 62.75 25.0664C62.5938 24.9753 62.4701 24.9102 62.3789 24.8711C62.0013 24.8711 61.7344 24.5781 61.5781 23.9922L61.3438 24.0312C61.2917 24.0312 61.1159 23.569 60.8164 22.6445C60.7383 22.5404 60.6146 22.4688 60.4453 22.4297C60.276 22.3776 60.1914 22.2474 60.1914 22.0391C60.1914 21.4531 60.3151 21.0625 60.5625 20.8672C60.8229 20.6589 60.9661 20.5026 60.9922 20.3984L61.2656 19.3828C61.3177 19.3438 61.3828 19.2135 61.4609 18.9922L61.9102 18.1719C61.9622 18.0807 62.0794 17.8529 62.2617 17.4883ZM66.3828 16.3164L66.1484 16.4336C66.0964 16.4596 65.9401 16.5768 65.6797 16.7852C65.4323 16.9805 65.1849 17.1432 64.9375 17.2734C64.7031 17.3906 64.4557 17.7096 64.1953 18.2305C63.9479 18.7513 63.8242 19.0508 63.8242 19.1289C63.8242 19.207 63.8633 19.2461 63.9414 19.2461L64.6055 18.9531C64.8529 18.8359 65.0807 18.6862 65.2891 18.5039C65.5104 18.3216 65.8229 18.1003 66.2266 17.8398L66.3828 17.6836C66.4089 17.6315 66.526 17.5404 66.7344 17.4102C66.9557 17.2669 67.1185 17.1302 67.2227 17L67.418 16.9219C67.6393 16.5703 67.8607 16.3555 68.082 16.2773C68.3164 16.1992 68.4336 16.1211 68.4336 16.043C68.4336 15.8867 68.3099 15.8086 68.0625 15.8086C67.9583 15.8086 67.8021 15.8737 67.5938 16.0039H67.1445C67.0924 16.0039 66.9492 16.082 66.7148 16.2383L66.3828 16.3164ZM76.2266 15.9648L76.5195 15.8867L76.6367 15.6328C77.2747 15.2552 77.7305 14.8971 78.0039 14.5586C78.0299 14.5065 78.0885 14.4544 78.1797 14.4023C78.2708 14.3503 78.3685 14.2591 78.4727 14.1289C78.9544 13.6471 79.5273 13.4062 80.1914 13.4062C80.9727 13.4062 81.3893 13.8815 81.4414 14.832L81.5586 15.125C81.6628 15.3073 81.806 15.6784 81.9883 16.2383C82.1836 16.7982 82.2812 17.1432 82.2812 17.2734C82.2812 17.625 82.1706 17.9766 81.9492 18.3281C81.7669 18.4193 81.3307 18.9076 80.6406 19.793L80.4453 19.9297C80.3411 20.1641 80.2044 20.3984 80.0352 20.6328C79.7747 20.724 79.6445 20.8216 79.6445 20.9258V21.2773C79.6445 21.3034 79.612 21.3555 79.5469 21.4336C79.4948 21.5117 79.4167 21.6615 79.3125 21.8828L79.1562 22.1172C79.1042 22.1693 79.0521 22.2799 79 22.4492C78.9479 22.6055 78.8698 22.7487 78.7656 22.8789C78.6745 23.0091 78.6289 23.1133 78.6289 23.1914C78.6289 23.3867 78.8828 23.4844 79.3906 23.4844C79.4167 23.4844 79.5143 23.4453 79.6836 23.3672L79.957 23.4453C79.9831 23.4453 80.0482 23.4062 80.1523 23.3281C80.2565 23.237 80.4128 23.1654 80.6211 23.1133C80.8424 23.0612 81.0312 22.9831 81.1875 22.8789C81.3568 22.7747 81.5521 22.6836 81.7734 22.6055C82.0078 22.5273 82.2292 22.4036 82.4375 22.2344C82.6458 22.0521 82.8477 21.9219 83.043 21.8438C83.2513 21.7656 83.4401 21.6484 83.6094 21.4922C83.7917 21.3229 83.9935 21.1667 84.2148 21.0234C84.4362 20.8802 84.7878 20.5677 85.2695 20.0859C85.582 19.8385 85.7969 19.7018 85.9141 19.6758C85.9401 19.6758 86.0508 19.5065 86.2461 19.168C86.4544 18.8164 86.6888 18.6406 86.9492 18.6406C87.2227 18.6406 87.3594 18.7708 87.3594 19.0312C87.3594 19.1745 87.2943 19.3112 87.1641 19.4414V19.5586L87.2031 19.8711C87.2292 19.9102 87.2422 19.9688 87.2422 20.0469C87.2422 20.099 87.1901 20.1771 87.0859 20.2812C86.9948 20.3854 86.9297 20.5221 86.8906 20.6914C86.8516 20.8477 86.7279 20.9518 86.5195 21.0039C86.4414 21.2904 86.3372 21.4531 86.207 21.4922C86.0898 21.5312 85.9206 21.6615 85.6992 21.8828C85.4779 22.1042 85.1654 22.3646 84.7617 22.6641C84.3581 22.9635 84.0781 23.1979 83.9219 23.3672C83.7786 23.5234 83.681 23.6016 83.6289 23.6016C83.6029 23.6016 83.5508 23.5755 83.4727 23.5234C83.3945 23.4714 83.3424 23.4453 83.3164 23.4453C83.2383 23.4453 83.1862 23.5365 83.1602 23.7188L83.082 23.9141C82.9128 24.0182 82.8151 24.0703 82.7891 24.0703L82.6719 24.0312H82.5938C82.4375 24.0312 82.3594 24.0898 82.3594 24.207L82.4766 24.4023V24.4414C82.4766 24.6237 82.3724 24.7148 82.1641 24.7148C82.0208 24.7148 81.6042 24.9557 80.9141 25.4375L80.3477 25.5547L79.8789 25.8086C79.7227 25.7174 79.625 25.6719 79.5859 25.6719L79.2734 25.7695L78.707 25.8086C78.694 25.8086 78.4531 25.6784 77.9844 25.418C77.5286 25.1576 77.2552 24.8971 77.1641 24.6367C77.0729 24.3763 76.9557 24.1159 76.8125 23.8555C76.6693 23.582 76.5977 23.3932 76.5977 23.2891C76.5977 22.6641 76.6497 22.2214 76.7539 21.9609C76.8581 21.6875 76.9232 21.4857 76.9492 21.3555C76.9753 21.2253 77.0469 21.0885 77.1641 20.9453C77.2943 20.7891 77.3984 20.5417 77.4766 20.2031C77.8542 19.4479 78.1146 18.9857 78.2578 18.8164C78.401 18.6471 78.5117 18.4388 78.5898 18.1914L78.8438 17.8398C78.8698 17.8138 78.9089 17.7161 78.9609 17.5469C79.013 17.3646 79.0781 17.2604 79.1562 17.2344C79.2604 17.0521 79.3125 16.9349 79.3125 16.8828C79.3125 16.5052 79.1432 16.3164 78.8047 16.3164C78.7396 16.3164 78.668 16.388 78.5898 16.5312C78.5117 16.6615 78.3294 16.7917 78.043 16.9219C77.7695 17.0521 77.6003 17.1497 77.5352 17.2148C77.4701 17.2799 77.3268 17.3646 77.1055 17.4688C76.8971 17.5599 76.7148 17.7096 76.5586 17.918L76.2266 18.0742C76.1224 18.3216 76.0312 18.4583 75.9531 18.4844C75.875 18.5104 75.6341 18.5755 75.2305 18.6797C75.2044 18.6927 75.1393 18.7708 75.0352 18.9141C74.931 19.0573 74.7812 19.1289 74.5859 19.1289C74.4297 19.2852 74.2734 19.4674 74.1172 19.6758C74.0651 19.6758 73.9284 19.7279 73.707 19.832L73.3164 19.9297C73.2122 20.0078 73.0951 20.1315 72.9648 20.3008C72.8477 20.4701 72.6198 20.5547 72.2812 20.5547C72.0859 20.5547 71.9883 20.3984 71.9883 20.0859C71.9883 19.4479 72.2096 18.9401 72.6523 18.5625C73.1081 18.1849 73.4401 17.9831 73.6484 17.957C73.8568 17.931 73.987 17.8529 74.0391 17.7227C74.0911 17.5924 74.2148 17.4883 74.4102 17.4102C74.6185 17.319 74.8529 17.1302 75.1133 16.8438C75.3867 16.5443 75.6797 16.3424 75.9922 16.2383L76.2266 15.9648ZM101.734 20.3984L102.047 20.125C102.242 20.125 102.359 20.0404 102.398 19.8711C102.438 19.6888 102.574 19.5456 102.809 19.4414C103.056 19.3372 103.284 19.1289 103.492 18.8164C103.701 18.4909 103.915 18.3281 104.137 18.3281C104.215 18.3281 104.306 18.3932 104.41 18.5234C104.514 18.6536 104.566 18.7578 104.566 18.8359C104.566 19.2656 104.436 19.7083 104.176 20.1641L104.098 20.7109L103.961 20.9648C103.766 21.069 103.635 21.1797 103.57 21.2969C103.518 21.4141 103.368 21.5573 103.121 21.7266L102.926 22C102.639 22.0911 102.444 22.2409 102.34 22.4492C102.249 22.6576 102.112 22.7747 101.93 22.8008C101.76 22.8268 101.572 22.957 101.363 23.1914C101.233 23.2565 101.077 23.3151 100.895 23.3672L100.855 23.5625C100.725 23.6927 100.517 23.7969 100.23 23.875C99.957 23.9531 99.7487 24.0312 99.6055 24.1094C99.4753 24.1745 99.3841 24.207 99.332 24.207C99.0846 24.207 98.8568 24.1615 98.6484 24.0703C98.4401 23.9661 98.2253 23.901 98.0039 23.875C97.9258 23.7969 97.8802 23.7122 97.8672 23.6211C97.8542 23.5299 97.7891 23.4128 97.6719 23.2695C97.5547 23.1133 97.4961 22.9049 97.4961 22.6445L97.5742 22.2734C97.5742 22.2214 97.5417 22.1562 97.4766 22.0781C97.4115 22 97.3789 21.9349 97.3789 21.8828C97.3789 21.8307 97.3919 21.7917 97.418 21.7656C97.444 21.7396 97.457 21.7005 97.457 21.6484C97.457 21.5833 97.444 21.5117 97.418 21.4336C97.3919 21.3555 97.3789 21.2904 97.3789 21.2383L97.4961 20.2812C97.4961 20.2031 97.4701 20.1641 97.418 20.1641C97.3659 20.1641 97.2682 20.2292 97.125 20.3594C96.9948 20.4896 96.8385 20.5547 96.6562 20.5547C96.5521 20.6328 96.4674 20.7956 96.4023 21.043C96.2982 21.1732 96.168 21.2904 96.0117 21.3945L95.9336 21.5117C95.9076 21.6029 95.8099 21.681 95.6406 21.7461C95.4714 21.7982 95.3542 21.8698 95.2891 21.9609L95.0938 22.1562L94.7227 22.1172C94.6966 22.1432 94.625 22.2604 94.5078 22.4688C94.3906 22.6641 94.2409 22.8268 94.0586 22.957L92.5742 24.168C92.418 24.2721 92.1901 24.4023 91.8906 24.5586L91.7734 24.6758C90.7318 25.3659 89.9961 25.7109 89.5664 25.7109C89.2148 25.7109 88.8047 25.6133 88.3359 25.418C87.8672 25.2227 87.6133 24.9883 87.5742 24.7148L87.3789 23.9141C87.2617 23.7318 87.2031 23.4779 87.2031 23.1523C87.2031 22.9961 87.2161 22.8919 87.2422 22.8398V22.7227L87.2031 22.0781C87.2031 21.9219 87.3268 21.8438 87.5742 21.8438L87.5352 21.3164C87.5352 21.2643 87.6458 21.0625 87.8672 20.7109C88.1016 20.3464 88.2578 20.138 88.3359 20.0859L88.5312 19.832C88.5182 19.6758 88.6094 19.513 88.8047 19.3438C89 19.1615 89.1562 18.9792 89.2734 18.7969C89.3906 18.6146 89.612 18.4128 89.9375 18.1914L90.5234 17.6055C90.9792 17.1497 91.474 16.7852 92.0078 16.5117C92.0859 16.4857 92.2422 16.3555 92.4766 16.1211C92.724 15.8867 92.9974 15.7174 93.2969 15.6133C93.6094 15.4961 93.9089 15.3529 94.1953 15.1836C94.4948 15.0143 94.7292 14.9297 94.8984 14.9297H95.0547C95.1068 14.9297 95.4518 14.7669 96.0898 14.4414H96.207C96.2591 14.4414 96.3828 14.4935 96.5781 14.5977H96.6172L96.9297 14.4414C96.9818 14.4154 97.0469 14.4023 97.125 14.4023C97.9323 14.4023 98.375 14.9622 98.4531 16.082C98.4792 16.3164 98.5443 16.4336 98.6484 16.4336C98.7786 16.4336 98.9609 16.1992 99.1953 15.7305C99.4427 15.2487 99.957 15.0078 100.738 15.0078C101.298 15.0078 101.578 15.3659 101.578 16.082C101.578 16.9284 101.201 17.7292 100.445 18.4844C100.393 18.5885 100.354 18.7057 100.328 18.8359L100.055 19.6367V19.6758C100.055 19.7539 99.9961 19.8646 99.8789 20.0078C99.7747 20.138 99.7227 20.2552 99.7227 20.3594L99.7617 20.8477L99.6836 21.3945C99.6836 21.6419 99.7292 21.8047 99.8203 21.8828C100.237 21.7786 100.536 21.6094 100.719 21.375C100.914 21.1276 101.051 20.9909 101.129 20.9648L101.324 20.8867C101.441 20.6914 101.578 20.5286 101.734 20.3984ZM95.25 20.3984C95.3021 20.112 95.4583 19.8971 95.7188 19.7539C95.9922 19.5977 96.1549 19.4414 96.207 19.2852C96.4544 19.1029 96.806 18.7773 97.2617 18.3086C97.7305 17.8398 97.9648 17.5534 97.9648 17.4492C97.9648 17.4102 97.9388 17.3906 97.8867 17.3906H97.8477L97.6914 17.4883L97.3398 17.4492L96.9688 17.4883L96.6953 17.3516L96.4414 17.3906L96.0508 17.3125C95.8424 17.3125 95.6602 17.3581 95.5039 17.4492C95.3607 17.5273 95.0742 17.6185 94.6445 17.7227C94.2279 17.8268 93.8503 18.0091 93.5117 18.2695C93.1732 18.5169 92.9258 18.6406 92.7695 18.6406C92.6784 18.8359 92.3724 19.1159 91.8516 19.4805C91.5391 19.5846 91.3372 19.8125 91.2461 20.1641C90.9076 20.4375 90.7383 20.5938 90.7383 20.6328L90.6016 20.9648C90.4974 21.056 90.3672 21.1341 90.2109 21.1992C90.0547 21.2513 89.9635 21.388 89.9375 21.6094C89.9115 21.8177 89.8203 22.013 89.6641 22.1953C89.5208 22.3646 89.4492 22.5013 89.4492 22.6055C89.4492 23.2435 89.5729 23.5625 89.8203 23.5625C89.9245 23.5625 90.1393 23.4974 90.4648 23.3672C90.8034 23.224 90.9987 23.1263 91.0508 23.0742C91.1029 23.0221 91.207 22.9701 91.3633 22.918L91.7344 22.7227C91.7865 22.6706 91.8451 22.638 91.9102 22.625C91.9753 22.612 92.0404 22.5729 92.1055 22.5078C92.1706 22.4297 92.2878 22.3516 92.457 22.2734C92.6263 22.1823 92.7565 22.0651 92.8477 21.9219C93.069 21.7917 93.4271 21.5898 93.9219 21.3164L94.332 21.0039C94.6185 20.8737 94.7943 20.763 94.8594 20.6719C94.9245 20.5807 95.0547 20.4896 95.25 20.3984ZM117.75 12.8789L117.047 12.7227C116.669 12.6576 116.48 12.2669 116.48 11.5508C116.48 10.9909 116.923 10.5156 117.809 10.125C118.707 9.72135 119.247 9.46094 119.43 9.34375C119.625 9.22656 119.866 9.16797 120.152 9.16797C120.374 8.97266 120.706 8.77734 121.148 8.58203C121.604 8.38672 121.93 8.22396 122.125 8.09375C122.333 7.95052 122.522 7.85286 122.691 7.80078C122.874 7.7487 123.03 7.64453 123.16 7.48828C123.329 7.4362 123.473 7.38411 123.59 7.33203C123.707 7.26693 123.954 7.17578 124.332 7.05859C124.723 6.94141 124.957 6.84375 125.035 6.76562L125.484 6.47266C125.862 6.45964 126.09 6.40104 126.168 6.29688C126.259 6.19271 126.513 6.08203 126.93 5.96484L127.516 5.80859C127.594 5.80859 127.691 5.8737 127.809 6.00391C127.861 5.70443 127.978 5.55469 128.16 5.55469L128.766 5.59375C129 5.4375 129.143 5.35938 129.195 5.35938L129.312 5.28125C129.56 5.30729 129.742 5.33333 129.859 5.35938C129.977 5.38542 130.087 5.47656 130.191 5.63281C130.309 5.45052 130.419 5.35938 130.523 5.35938C130.732 5.35938 130.973 5.45052 131.246 5.63281L131.559 5.59375C131.884 5.59375 132.06 5.69792 132.086 5.90625C132.112 6.10156 132.171 6.25781 132.262 6.375C132.353 6.49219 132.438 6.66146 132.516 6.88281L132.672 7.11719C132.789 7.19531 132.848 7.28646 132.848 7.39062C132.848 7.66406 132.685 8.05469 132.359 8.5625L131.832 9.59766C131.676 9.84505 131.507 10.0599 131.324 10.2422L131.168 10.5547C130.973 10.776 130.816 10.9323 130.699 11.0234C130.582 11.1146 130.51 11.388 130.484 11.8438C130.432 12 130.354 12.1172 130.25 12.1953C130.159 12.2604 130.087 12.3451 130.035 12.4492C129.775 12.5143 129.592 12.6576 129.488 12.8789L128.512 14.5977C128.473 14.6888 128.329 14.793 128.082 14.9102C127.848 15.0273 127.607 15.457 127.359 16.1992C127.503 16.056 127.652 15.9258 127.809 15.8086L128.16 15.3203L129.879 13.6797C130.217 13.3542 130.439 13.1458 130.543 13.0547C130.647 12.9505 130.745 12.8919 130.836 12.8789C130.875 12.7747 130.999 12.651 131.207 12.5078C131.415 12.3646 131.611 12.1823 131.793 11.9609L132.047 11.7266L132.164 11.5117C132.268 11.2773 132.411 11.1602 132.594 11.1602L132.75 11.0039C132.815 10.7565 132.978 10.6328 133.238 10.6328C133.29 10.5807 133.323 10.4701 133.336 10.3008C133.349 10.1315 133.466 10.0469 133.688 10.0469H133.844L133.883 10.0078C133.909 9.89062 133.954 9.8125 134.02 9.77344C134.085 9.73438 134.143 9.64974 134.195 9.51953C134.195 9.58464 134.215 9.59115 134.254 9.53906C134.306 9.48698 134.391 9.35677 134.508 9.14844C134.625 8.9401 134.755 8.8099 134.898 8.75781C135.042 8.70573 135.133 8.61458 135.172 8.48438C135.211 8.35417 135.309 8.25 135.465 8.17188C135.634 8.08073 135.777 7.98958 135.895 7.89844C136.012 7.80729 136.116 7.76172 136.207 7.76172C136.259 7.76172 136.337 7.8138 136.441 7.91797C136.467 7.51432 136.923 7.11719 137.809 6.72656L138.844 5.96484C139.13 5.78255 139.352 5.67188 139.508 5.63281C139.664 5.58073 139.911 5.45052 140.25 5.24219C140.589 5.02083 140.862 4.89062 141.07 4.85156C141.279 4.8125 141.617 4.79297 142.086 4.79297L142.477 4.87109C142.581 4.81901 142.717 4.79297 142.887 4.79297C143.212 4.79297 143.642 4.97526 144.176 5.33984C144.723 5.70443 144.996 6.23177 144.996 6.92188C144.996 7.42969 144.794 7.96354 144.391 8.52344C144.312 8.60156 144.208 8.79688 144.078 9.10938C143.948 9.40885 143.824 9.65625 143.707 9.85156C143.603 10.0339 143.518 10.2422 143.453 10.4766C143.388 10.6979 143.199 10.9648 142.887 11.2773C142.587 11.5768 142.392 11.9609 142.301 12.4297C142.288 12.4948 142.236 12.5859 142.145 12.7031C142.053 12.8203 141.975 12.9766 141.91 13.1719C141.858 13.3542 141.741 13.569 141.559 13.8164C141.376 14.0508 141.259 14.2852 141.207 14.5195C141.207 14.5977 141.005 14.8646 140.602 15.3203L139.957 16.9609C139.814 17.0651 139.632 17.3906 139.41 17.9375L138.727 19.4805C138.531 19.806 138.395 20.0078 138.316 20.0859V20.5547C138.16 20.776 138.062 21.082 138.023 21.4727C137.984 21.8503 137.952 22.1107 137.926 22.2539C137.9 22.3841 137.887 22.4753 137.887 22.5273C137.887 22.7878 138.017 22.918 138.277 22.918C138.655 22.918 138.935 22.8268 139.117 22.6445C139.299 22.4492 139.443 22.319 139.547 22.2539C139.664 22.1888 139.866 22.013 140.152 21.7266L141.441 20.6719C141.78 20.4115 142.008 20.2357 142.125 20.1445C142.242 20.0404 142.424 19.9818 142.672 19.9688C143.193 18.9271 143.674 18.4062 144.117 18.4062C144.547 18.4062 144.762 18.5234 144.762 18.7578L144.605 19.0312L144.723 19.4023V19.4805L144.605 20.125C144.579 20.2031 144.43 20.3333 144.156 20.5156C144.13 20.6979 144.013 20.8542 143.805 20.9844C143.609 21.1016 143.434 21.2383 143.277 21.3945L142.926 21.3555C142.835 21.6029 142.704 21.7982 142.535 21.9414L141.969 22.3711C141.773 22.5143 141.533 22.6836 141.246 22.8789C140.973 23.0742 140.667 23.2305 140.328 23.3477C139.99 23.4648 139.762 23.582 139.645 23.6992C139.54 23.8164 139.417 23.888 139.273 23.9141H138.961L138.512 24.0312L137.398 24.168C137.281 24.168 136.793 23.9076 135.934 23.3867C135.074 22.8659 134.645 21.974 134.645 20.7109C134.645 20.2943 134.723 19.9622 134.879 19.7148L134.996 19.4805C135.022 19.4023 135.094 19.2656 135.211 19.0703C135.328 18.875 135.432 18.6536 135.523 18.4062C135.758 18.2891 135.875 18.1914 135.875 18.1133C135.875 18.0872 135.862 18.0547 135.836 18.0156C135.81 17.9766 135.797 17.931 135.797 17.8789C135.797 17.7747 135.849 17.6445 135.953 17.4883V17.1172L137.086 15.3594C137.086 15.3464 137.236 15.0208 137.535 14.3828C137.848 13.7318 138.036 13.3802 138.102 13.3281C138.167 13.276 138.206 13.224 138.219 13.1719C138.232 13.1068 138.258 13.0286 138.297 12.9375C138.336 12.8464 138.362 12.7422 138.375 12.625C138.388 12.5078 138.486 12.3451 138.668 12.1367C138.863 11.9154 139.039 11.668 139.195 11.3945L139.391 11.1211C139.534 10.9388 139.645 10.7435 139.723 10.5352C139.801 10.3138 139.879 10.1576 139.957 10.0664C140.621 9.28516 140.992 8.56901 141.07 7.91797C141.161 7.76172 141.259 7.625 141.363 7.50781C141.467 7.3776 141.52 7.23438 141.52 7.07812L141.402 6.80469C141.077 6.90885 140.745 7.07161 140.406 7.29297C140.081 7.5013 139.729 7.67057 139.352 7.80078C138.987 7.93099 138.727 8.0612 138.57 8.19141C138.427 8.30859 138.062 8.53646 137.477 8.875L137.203 9.20703C137.203 9.23307 137.177 9.25911 137.125 9.28516L136.754 9.24609C136.702 9.27214 136.65 9.35677 136.598 9.5C136.559 9.63021 136.415 9.72786 136.168 9.79297C136.129 9.80599 136.044 9.95573 135.914 10.2422C135.81 10.3203 135.543 10.4115 135.113 10.5156C134.957 10.6458 134.814 10.8346 134.684 11.082C134.553 11.3164 134.339 11.4857 134.039 11.5898C133.74 11.681 133.564 11.7526 133.512 11.8047C133.408 12.4036 133.16 12.7617 132.77 12.8789C132.379 12.9831 132.132 13.2109 132.027 13.5625C131.923 13.901 131.728 14.1029 131.441 14.168C131.337 14.2461 131.168 14.4349 130.934 14.7344C130.712 15.0208 130.432 15.2812 130.094 15.5156C129.768 15.75 129.482 16.0365 129.234 16.375C129 16.7135 128.785 16.9479 128.59 17.0781C128.395 17.1953 127.991 17.5924 127.379 18.2695C126.767 18.9466 126.422 19.3503 126.344 19.4805C126.266 19.6107 125.979 19.9297 125.484 20.4375C125.432 20.4375 125.309 20.4635 125.113 20.5156C125.061 20.6198 125.003 20.7044 124.938 20.7695L124.156 21.668C123.831 22.0326 123.447 22.5273 123.004 23.1523C122.874 23.2174 122.763 23.263 122.672 23.2891C122.62 23.3411 122.581 23.4453 122.555 23.6016L122.438 23.8359L122.008 24.1289C121.656 24.9232 121.161 25.3203 120.523 25.3203C120.172 25.3203 119.846 25.0534 119.547 24.5195C119.26 23.9727 119.117 23.6927 119.117 23.6797C119.117 22.9375 119.169 22.4557 119.273 22.2344C119.391 22.013 119.54 21.8047 119.723 21.6094C119.749 21.6094 119.807 21.4922 119.898 21.2578C119.99 21.0104 120.1 20.8086 120.23 20.6523C120.374 20.4831 120.53 20.2357 120.699 19.9102C120.868 19.5716 121.025 19.4023 121.168 19.4023C121.194 19.4023 121.246 19.4154 121.324 19.4414L121.402 19.3633L121.324 18.9141C121.376 18.7839 121.441 18.6797 121.52 18.6016C121.598 18.5234 121.676 18.3802 121.754 18.1719C121.832 17.9505 121.995 17.7878 122.242 17.6836C122.242 17.5794 122.372 17.3646 122.633 17.0391C122.737 16.7917 122.88 16.5052 123.062 16.1797C123.258 15.8411 123.466 15.6328 123.688 15.5547V15.3984C123.688 15.2422 123.857 14.9883 124.195 14.6367C124.352 14.5846 124.456 14.4544 124.508 14.2461C124.573 14.0378 124.697 13.875 124.879 13.7578C125.074 13.4974 125.289 13.1979 125.523 12.8594L126.285 11.8828C126.441 11.7135 126.559 11.6029 126.637 11.5508C126.637 11.1602 126.76 10.9648 127.008 10.9648C127.034 10.9648 127.086 10.9779 127.164 11.0039C127.216 10.7305 127.294 10.5352 127.398 10.418C127.503 10.3008 127.568 10.1641 127.594 10.0078C127.62 9.83854 127.848 9.6888 128.277 9.55859L128.199 9.28516C128.408 8.82943 128.635 8.53646 128.883 8.40625C128.922 8.36719 129.039 8.08724 129.234 7.56641C129.234 7.48828 129.104 7.40365 128.844 7.3125C128.766 7.40365 128.701 7.44922 128.648 7.44922L128.004 7.39062L127.398 7.60547C127.19 7.60547 127.073 7.61849 127.047 7.64453L126.793 7.72266C126.546 7.8138 126.389 7.90495 126.324 7.99609H126.246L125.953 7.91797H125.875L124.996 8.48438H124.918L124.273 8.40625C124.143 8.61458 123.785 8.77083 123.199 8.875L123.004 9.20703L122.555 9.16797C122.424 9.24609 122.301 9.35026 122.184 9.48047C122.066 9.61068 121.936 9.6888 121.793 9.71484C120.816 10.1445 120.152 10.5547 119.801 10.9453C119.697 11.0625 119.592 11.1602 119.488 11.2383C119.397 11.3164 119.299 11.4531 119.195 11.6484L118.961 12C118.883 12.2083 118.772 12.3255 118.629 12.3516C118.499 12.3776 118.349 12.4753 118.18 12.6445C118.01 12.8008 117.867 12.8789 117.75 12.8789ZM158.688 20.3984L159 20.125C159.195 20.125 159.312 20.0404 159.352 19.8711C159.391 19.6888 159.527 19.5456 159.762 19.4414C160.009 19.3372 160.237 19.1289 160.445 18.8164C160.654 18.4909 160.868 18.3281 161.09 18.3281C161.168 18.3281 161.259 18.3932 161.363 18.5234C161.467 18.6536 161.52 18.7578 161.52 18.8359C161.52 19.2656 161.389 19.7083 161.129 20.1641L161.051 20.7109L160.914 20.9648C160.719 21.069 160.589 21.1797 160.523 21.2969C160.471 21.4141 160.322 21.5573 160.074 21.7266L159.879 22C159.592 22.0911 159.397 22.2409 159.293 22.4492C159.202 22.6576 159.065 22.7747 158.883 22.8008C158.714 22.8268 158.525 22.957 158.316 23.1914C158.186 23.2565 158.03 23.3151 157.848 23.3672L157.809 23.5625C157.678 23.6927 157.47 23.7969 157.184 23.875C156.91 23.9531 156.702 24.0312 156.559 24.1094C156.428 24.1745 156.337 24.207 156.285 24.207C156.038 24.207 155.81 24.1615 155.602 24.0703C155.393 23.9661 155.178 23.901 154.957 23.875C154.879 23.7969 154.833 23.7122 154.82 23.6211C154.807 23.5299 154.742 23.4128 154.625 23.2695C154.508 23.1133 154.449 22.9049 154.449 22.6445L154.527 22.2734C154.527 22.2214 154.495 22.1562 154.43 22.0781C154.365 22 154.332 21.9349 154.332 21.8828C154.332 21.8307 154.345 21.7917 154.371 21.7656C154.397 21.7396 154.41 21.7005 154.41 21.6484C154.41 21.5833 154.397 21.5117 154.371 21.4336C154.345 21.3555 154.332 21.2904 154.332 21.2383L154.449 20.2812C154.449 20.2031 154.423 20.1641 154.371 20.1641C154.319 20.1641 154.221 20.2292 154.078 20.3594C153.948 20.4896 153.792 20.5547 153.609 20.5547C153.505 20.6328 153.421 20.7956 153.355 21.043C153.251 21.1732 153.121 21.2904 152.965 21.3945L152.887 21.5117C152.861 21.6029 152.763 21.681 152.594 21.7461C152.424 21.7982 152.307 21.8698 152.242 21.9609L152.047 22.1562L151.676 22.1172C151.65 22.1432 151.578 22.2604 151.461 22.4688C151.344 22.6641 151.194 22.8268 151.012 22.957L149.527 24.168C149.371 24.2721 149.143 24.4023 148.844 24.5586L148.727 24.6758C147.685 25.3659 146.949 25.7109 146.52 25.7109C146.168 25.7109 145.758 25.6133 145.289 25.418C144.82 25.2227 144.566 24.9883 144.527 24.7148L144.332 23.9141C144.215 23.7318 144.156 23.4779 144.156 23.1523C144.156 22.9961 144.169 22.8919 144.195 22.8398V22.7227L144.156 22.0781C144.156 21.9219 144.28 21.8438 144.527 21.8438L144.488 21.3164C144.488 21.2643 144.599 21.0625 144.82 20.7109C145.055 20.3464 145.211 20.138 145.289 20.0859L145.484 19.832C145.471 19.6758 145.562 19.513 145.758 19.3438C145.953 19.1615 146.109 18.9792 146.227 18.7969C146.344 18.6146 146.565 18.4128 146.891 18.1914L147.477 17.6055C147.932 17.1497 148.427 16.7852 148.961 16.5117C149.039 16.4857 149.195 16.3555 149.43 16.1211C149.677 15.8867 149.951 15.7174 150.25 15.6133C150.562 15.4961 150.862 15.3529 151.148 15.1836C151.448 15.0143 151.682 14.9297 151.852 14.9297H152.008C152.06 14.9297 152.405 14.7669 153.043 14.4414H153.16C153.212 14.4414 153.336 14.4935 153.531 14.5977H153.57L153.883 14.4414C153.935 14.4154 154 14.4023 154.078 14.4023C154.885 14.4023 155.328 14.9622 155.406 16.082C155.432 16.3164 155.497 16.4336 155.602 16.4336C155.732 16.4336 155.914 16.1992 156.148 15.7305C156.396 15.2487 156.91 15.0078 157.691 15.0078C158.251 15.0078 158.531 15.3659 158.531 16.082C158.531 16.9284 158.154 17.7292 157.398 18.4844C157.346 18.5885 157.307 18.7057 157.281 18.8359L157.008 19.6367V19.6758C157.008 19.7539 156.949 19.8646 156.832 20.0078C156.728 20.138 156.676 20.2552 156.676 20.3594L156.715 20.8477L156.637 21.3945C156.637 21.6419 156.682 21.8047 156.773 21.8828C157.19 21.7786 157.49 21.6094 157.672 21.375C157.867 21.1276 158.004 20.9909 158.082 20.9648L158.277 20.8867C158.395 20.6914 158.531 20.5286 158.688 20.3984ZM152.203 20.3984C152.255 20.112 152.411 19.8971 152.672 19.7539C152.945 19.5977 153.108 19.4414 153.16 19.2852C153.408 19.1029 153.759 18.7773 154.215 18.3086C154.684 17.8398 154.918 17.5534 154.918 17.4492C154.918 17.4102 154.892 17.3906 154.84 17.3906H154.801L154.645 17.4883L154.293 17.4492L153.922 17.4883L153.648 17.3516L153.395 17.3906L153.004 17.3125C152.796 17.3125 152.613 17.3581 152.457 17.4492C152.314 17.5273 152.027 17.6185 151.598 17.7227C151.181 17.8268 150.803 18.0091 150.465 18.2695C150.126 18.5169 149.879 18.6406 149.723 18.6406C149.632 18.8359 149.326 19.1159 148.805 19.4805C148.492 19.5846 148.29 19.8125 148.199 20.1641C147.861 20.4375 147.691 20.5938 147.691 20.6328L147.555 20.9648C147.451 21.056 147.32 21.1341 147.164 21.1992C147.008 21.2513 146.917 21.388 146.891 21.6094C146.865 21.8177 146.773 22.013 146.617 22.1953C146.474 22.3646 146.402 22.5013 146.402 22.6055C146.402 23.2435 146.526 23.5625 146.773 23.5625C146.878 23.5625 147.092 23.4974 147.418 23.3672C147.757 23.224 147.952 23.1263 148.004 23.0742C148.056 23.0221 148.16 22.9701 148.316 22.918L148.688 22.7227C148.74 22.6706 148.798 22.638 148.863 22.625C148.928 22.612 148.993 22.5729 149.059 22.5078C149.124 22.4297 149.241 22.3516 149.41 22.2734C149.579 22.1823 149.71 22.0651 149.801 21.9219C150.022 21.7917 150.38 21.5898 150.875 21.3164L151.285 21.0039C151.572 20.8737 151.747 20.763 151.812 20.6719C151.878 20.5807 152.008 20.4896 152.203 20.3984ZM175.641 20.7109V20.9258L175.68 21.082V21.1602C175.68 21.1862 175.654 21.3359 175.602 21.6094C175.406 21.8177 175.296 22.1107 175.27 22.4883L175.035 22.8398C175.035 23.0221 174.97 23.1654 174.84 23.2695C174.723 23.3737 174.618 23.582 174.527 23.8945C174.436 24.207 174.326 24.5391 174.195 24.8906L173.746 26.0039C173.746 26.056 173.772 26.082 173.824 26.082C173.85 26.082 173.889 26.069 173.941 26.043C174.007 26.0169 174.065 26.0039 174.117 26.0039C174.169 26.0039 174.221 26.0169 174.273 26.043C174.326 26.069 174.365 26.082 174.391 26.082C174.417 26.082 174.508 26.0365 174.664 25.9453C174.833 25.8542 175.022 25.7956 175.23 25.7695L175.953 25.5938C176.109 25.5417 176.428 25.5156 176.91 25.5156L177.516 25.4766C177.997 25.4766 178.479 25.6003 178.961 25.8477C179.456 26.0951 179.762 26.3555 179.879 26.6289C180.009 26.9023 180.074 27.3451 180.074 27.957C180.074 28.4388 179.911 28.6797 179.586 28.6797C179.391 28.6797 179.137 28.556 178.824 28.3086C178.525 28.0612 178.316 27.7487 178.199 27.3711C178.082 26.9935 177.893 26.8047 177.633 26.8047L177.145 26.6484L176.871 26.7266H176.793C176.741 26.7266 176.624 26.6875 176.441 26.6094H176.383L175.797 26.7656H174.996L174.625 26.9609C174.443 27.013 174.241 27.0521 174.02 27.0781C173.811 27.1042 173.622 27.1562 173.453 27.2344C173.284 27.3125 173.199 27.3841 173.199 27.4492C173.199 27.8529 173.023 28.1979 172.672 28.4844C172.542 28.6927 172.47 28.8555 172.457 28.9727C172.444 29.1029 172.366 29.2396 172.223 29.3828C172.092 29.5391 171.949 29.7734 171.793 30.0859L171.637 30.3594C171.585 30.4375 171.559 30.5026 171.559 30.5547C171.559 30.5807 171.572 30.6328 171.598 30.7109V30.8867C171.598 31.2513 171.383 31.5964 170.953 31.9219V32.1172C170.953 32.2214 170.849 32.3711 170.641 32.5664L170.719 32.957C170.719 33.0091 170.647 33.1133 170.504 33.2695C170.361 33.4388 170.237 33.6211 170.133 33.8164C170.042 34.0247 169.859 34.207 169.586 34.3633V34.4805L169.703 34.7148C169.742 34.7148 169.762 34.7409 169.762 34.793C169.762 34.8841 169.664 35.0208 169.469 35.2031C169.417 35.4115 169.326 35.6133 169.195 35.8086L168.395 36.8828C168.264 37.0651 168.199 37.2083 168.199 37.3125L168.062 37.6836C167.919 37.8008 167.815 37.918 167.75 38.0352C167.698 38.1654 167.529 38.4128 167.242 38.7773C166.956 39.1419 166.767 39.3242 166.676 39.3242C166.754 39.4805 166.793 39.5716 166.793 39.5977C166.793 39.7539 166.689 39.9427 166.48 40.1641C166.142 40.1641 165.973 40.2357 165.973 40.3789L166.07 40.7695C166.07 40.8216 165.999 40.8997 165.855 41.0039C165.712 41.1081 165.595 41.1602 165.504 41.1602H165.23L165.309 41.5117C165.257 41.6549 165.178 41.7526 165.074 41.8047C164.97 41.8568 164.794 42.0065 164.547 42.2539C164.312 42.5143 164.143 42.6706 164.039 42.7227L163.785 42.8789L163.023 42.957C162.815 42.8919 162.411 42.6771 161.812 42.3125C161.227 41.9479 160.895 41.6029 160.816 41.2773C160.725 40.9648 160.68 40.5156 160.68 39.9297C160.68 39.8646 160.745 39.7539 160.875 39.5977L160.914 39.4414V39.0703C160.914 39.0443 160.979 38.8099 161.109 38.3672C161.24 37.9375 161.35 37.6966 161.441 37.6445C161.533 37.6055 161.676 37.3516 161.871 36.8828C162.066 36.4141 162.216 36.1081 162.32 35.9648L164.117 33.3281C164.117 33.1589 164.143 33.0482 164.195 32.9961H164.312C164.417 32.9961 164.488 32.957 164.527 32.8789C164.566 32.8138 164.625 32.7357 164.703 32.6445C164.703 32.3971 164.814 32.1953 165.035 32.0391C165.27 31.8828 165.432 31.707 165.523 31.5117C165.628 31.3294 165.745 31.1602 165.875 31.0039L165.914 30.8867C165.966 30.8346 166.077 30.7695 166.246 30.6914C166.428 30.6263 166.533 30.5286 166.559 30.3984L167.223 29.7539C167.288 29.7018 167.392 29.6367 167.535 29.5586C167.678 29.4805 167.828 29.3372 167.984 29.1289L168.121 29.0703H168.238L168.316 29.0312C168.473 28.6927 168.629 28.5104 168.785 28.4844C168.954 28.4583 169.065 28.4193 169.117 28.3672C169.104 27.9635 169.332 27.7617 169.801 27.7617C169.905 27.7617 169.983 27.7357 170.035 27.6836L170.504 27.3125C170.569 27.2604 170.693 27.0065 170.875 26.5508V26.5117L171.227 26.6094L171.266 26.5117L171.188 26.082C171.227 26.0299 171.305 25.8542 171.422 25.5547C171.539 25.2422 171.65 25.0599 171.754 25.0078C171.858 24.9557 171.91 24.8971 171.91 24.832V24.5977L171.871 24.3633L171.949 24.207V23.9531L171.988 23.875C172.053 23.8099 172.132 23.569 172.223 23.1523C172.275 23.1003 172.346 23.0482 172.438 22.9961L173.316 20.5156C173.342 20.4505 173.382 20.2812 173.434 20.0078L173.59 19.793C173.746 19.3763 173.824 19.1094 173.824 18.9922C173.824 18.9401 173.798 18.9141 173.746 18.9141C173.694 18.9141 173.577 18.9922 173.395 19.1484C173.212 19.2917 173.076 19.3633 172.984 19.3633L172.672 19.2852H172.594C172.516 19.2852 172.405 19.3503 172.262 19.4805C172.132 19.6107 172.053 19.6758 172.027 19.6758L171.793 19.7148C171.663 19.9362 171.546 20.0599 171.441 20.0859L170.953 20.3984H170.914L170.641 20.2031C170.641 20.1771 170.608 20.1641 170.543 20.1641C170.491 20.1641 170.413 20.3203 170.309 20.6328L169.703 20.9258C169.573 20.8997 169.495 20.8867 169.469 20.8867C169.339 20.8867 169.215 21.0104 169.098 21.2578C168.98 21.4922 168.824 21.6224 168.629 21.6484C168.525 21.7656 168.284 21.8568 167.906 21.9219L166.754 22.7227C166.624 22.7747 166.533 22.8398 166.48 22.918C166.207 22.944 165.953 23.0938 165.719 23.3672L165.191 23.3281C165.061 23.3281 164.931 23.4128 164.801 23.582C164.684 23.7513 164.56 23.8359 164.43 23.8359H164.312L164.078 23.7969L163.434 23.9531C163.251 23.9531 162.971 23.8164 162.594 23.543C162.216 23.2565 162.027 23.0091 162.027 22.8008L161.91 21.9219C161.91 21.8958 161.962 21.8047 162.066 21.6484C162.171 21.4922 162.223 21.3815 162.223 21.3164C162.223 21.2904 162.21 21.2383 162.184 21.1602V21.0039C162.184 20.5482 162.346 20.0013 162.672 19.3633V19.2852C162.672 19.2331 162.633 19.207 162.555 19.207C162.385 19.207 162.242 19.3503 162.125 19.6367C162.008 19.9102 161.871 20.1055 161.715 20.2227C161.559 20.3398 161.441 20.4375 161.363 20.5156C161.298 20.5938 161.24 20.6328 161.188 20.6328C161.109 20.5807 161.018 20.5417 160.914 20.5156C160.888 20.4896 160.842 20.4115 160.777 20.2812C160.712 20.151 160.615 20.0469 160.484 19.9688C160.341 19.8776 160.27 19.7279 160.27 19.5195C160.27 19.3763 160.458 19.1875 160.836 18.9531L161.07 18.7188C161.669 18.1198 162.073 17.8008 162.281 17.7617L162.398 17.4883C162.581 17.3451 162.802 17.1497 163.062 16.9023C163.336 16.6419 163.577 16.4596 163.785 16.3555L164.84 15.4375C165.152 15.151 165.582 15.0078 166.129 15.0078C166.546 15.0078 166.754 15.2747 166.754 15.8086C166.754 16.3424 166.656 16.7591 166.461 17.0586C166.279 17.3451 166.161 17.612 166.109 17.8594C166.07 18.0938 165.901 18.4128 165.602 18.8164C165.302 19.207 165.12 19.5 165.055 19.6953C164.99 19.8776 164.853 20.138 164.645 20.4766C164.449 20.8021 164.352 21.0951 164.352 21.3555C164.352 21.4857 164.43 21.5508 164.586 21.5508C164.807 21.5508 165.087 21.4336 165.426 21.1992L165.602 21.1211C165.732 21.069 165.862 21.0039 165.992 20.9258L166.48 20.7109C166.572 20.5156 166.715 20.3854 166.91 20.3203L167.281 20.125C167.464 20.0469 167.685 19.9492 167.945 19.832C168.219 19.7018 168.395 19.5781 168.473 19.4609C168.551 19.3438 168.648 19.2526 168.766 19.1875C168.896 19.1094 169.039 18.9922 169.195 18.8359C169.534 18.8359 170.003 18.543 170.602 17.957C171.201 17.6055 171.76 17.2604 172.281 16.9219C172.802 16.5703 173.147 16.3164 173.316 16.1602C173.395 16.1081 173.531 16.0365 173.727 15.9453C173.935 15.8542 174.163 15.7109 174.41 15.5156C174.671 15.3073 174.996 15.2031 175.387 15.2031C175.725 15.2031 176.051 15.3333 176.363 15.5938C176.676 15.8411 176.832 16.0885 176.832 16.3359L176.793 17.2734C176.793 17.8724 176.63 18.3802 176.305 18.7969C176.227 19.3177 176.135 19.6758 176.031 19.8711L176.07 20.3203C176.07 20.3984 175.927 20.5286 175.641 20.7109ZM166.383 35.6719L166.48 35.3984C166.507 35.3073 166.598 35.2161 166.754 35.125C166.884 34.5651 167.06 34.2005 167.281 34.0312C167.281 33.7448 167.294 33.582 167.32 33.543L167.594 33.2891L168.355 32C168.434 31.8177 168.518 31.6419 168.609 31.4727C168.701 31.3164 168.772 31.1602 168.824 31.0039C168.824 30.8216 169.039 30.4635 169.469 29.9297V29.793C169.469 29.6107 169.43 29.5195 169.352 29.5195C169.273 29.6107 169.143 29.7018 168.961 29.793L167.711 30.8477C167.646 30.8997 167.47 31.1081 167.184 31.4727L166.812 31.8633C166.604 32.0846 166.441 32.2214 166.324 32.2734C166.22 32.3385 166.083 32.5273 165.914 32.8398C165.758 33.1654 165.621 33.3281 165.504 33.3281H165.426C165.413 33.3281 165.348 33.2956 165.23 33.2305C165.152 33.2695 165.113 33.3281 165.113 33.4062L165.23 33.875C165.23 33.9271 165.178 34.0052 165.074 34.1094C164.97 34.2266 164.879 34.3503 164.801 34.4805C164.736 34.6107 164.664 34.6888 164.586 34.7148C164.508 34.7409 164.365 34.9818 164.156 35.4375L163.785 35.6328C163.746 36.401 163.505 37.0195 163.062 37.4883C162.958 37.6966 162.874 37.8984 162.809 38.0938C162.743 38.3021 162.685 38.4323 162.633 38.4844C162.555 38.9661 162.418 39.2461 162.223 39.3242C162.171 39.3503 162.145 39.3893 162.145 39.4414C162.145 39.5195 162.203 39.5977 162.32 39.6758L162.398 39.7539C162.229 40.2617 162.145 40.6393 162.145 40.8867C162.145 40.9388 162.171 40.9648 162.223 40.9648L162.809 40.6719C163.225 40.4766 163.505 40.2292 163.648 39.9297L163.961 39.3242C164.013 39.2461 164.104 39.194 164.234 39.168C164.312 38.8945 164.436 38.7188 164.605 38.6406C164.788 38.5625 164.879 38.4583 164.879 38.3281C164.879 38.1979 165.12 37.7487 165.602 36.9805C166.096 36.2122 166.357 35.776 166.383 35.6719ZM194.078 20.3984L194.391 20.125C194.586 20.125 194.703 20.0404 194.742 19.8711C194.781 19.6888 194.918 19.5456 195.152 19.4414C195.4 19.3372 195.628 19.1289 195.836 18.8164C196.044 18.4909 196.259 18.3281 196.48 18.3281C196.559 18.3281 196.65 18.3932 196.754 18.5234C196.858 18.6536 196.91 18.7578 196.91 18.8359C196.91 19.2656 196.78 19.7083 196.52 20.1641L196.441 20.7109L196.305 20.9648C196.109 21.069 195.979 21.1797 195.914 21.2969C195.862 21.4141 195.712 21.5573 195.465 21.7266L195.27 22C194.983 22.0911 194.788 22.2409 194.684 22.4492C194.592 22.6576 194.456 22.7747 194.273 22.8008C194.104 22.8268 193.915 22.957 193.707 23.1914C193.577 23.2565 193.421 23.3151 193.238 23.3672L193.199 23.5625C193.069 23.6927 192.861 23.7969 192.574 23.875C192.301 23.9531 192.092 24.0312 191.949 24.1094C191.819 24.1745 191.728 24.207 191.676 24.207C191.428 24.207 191.201 24.1615 190.992 24.0703C190.784 23.9661 190.569 23.901 190.348 23.875C190.27 23.7969 190.224 23.7122 190.211 23.6211C190.198 23.5299 190.133 23.4128 190.016 23.2695C189.898 23.1133 189.84 22.9049 189.84 22.6445L189.918 22.2734C189.918 22.2214 189.885 22.1562 189.82 22.0781C189.755 22 189.723 21.9349 189.723 21.8828C189.723 21.8307 189.736 21.7917 189.762 21.7656C189.788 21.7396 189.801 21.7005 189.801 21.6484C189.801 21.5833 189.788 21.5117 189.762 21.4336C189.736 21.3555 189.723 21.2904 189.723 21.2383L189.84 20.2812C189.84 20.2031 189.814 20.1641 189.762 20.1641C189.71 20.1641 189.612 20.2292 189.469 20.3594C189.339 20.4896 189.182 20.5547 189 20.5547C188.896 20.6328 188.811 20.7956 188.746 21.043C188.642 21.1732 188.512 21.2904 188.355 21.3945L188.277 21.5117C188.251 21.6029 188.154 21.681 187.984 21.7461C187.815 21.7982 187.698 21.8698 187.633 21.9609L187.438 22.1562L187.066 22.1172C187.04 22.1432 186.969 22.2604 186.852 22.4688C186.734 22.6641 186.585 22.8268 186.402 22.957L184.918 24.168C184.762 24.2721 184.534 24.4023 184.234 24.5586L184.117 24.6758C183.076 25.3659 182.34 25.7109 181.91 25.7109C181.559 25.7109 181.148 25.6133 180.68 25.418C180.211 25.2227 179.957 24.9883 179.918 24.7148L179.723 23.9141C179.605 23.7318 179.547 23.4779 179.547 23.1523C179.547 22.9961 179.56 22.8919 179.586 22.8398V22.7227L179.547 22.0781C179.547 21.9219 179.671 21.8438 179.918 21.8438L179.879 21.3164C179.879 21.2643 179.99 21.0625 180.211 20.7109C180.445 20.3464 180.602 20.138 180.68 20.0859L180.875 19.832C180.862 19.6758 180.953 19.513 181.148 19.3438C181.344 19.1615 181.5 18.9792 181.617 18.7969C181.734 18.6146 181.956 18.4128 182.281 18.1914L182.867 17.6055C183.323 17.1497 183.818 16.7852 184.352 16.5117C184.43 16.4857 184.586 16.3555 184.82 16.1211C185.068 15.8867 185.341 15.7174 185.641 15.6133C185.953 15.4961 186.253 15.3529 186.539 15.1836C186.839 15.0143 187.073 14.9297 187.242 14.9297H187.398C187.451 14.9297 187.796 14.7669 188.434 14.4414H188.551C188.603 14.4414 188.727 14.4935 188.922 14.5977H188.961L189.273 14.4414C189.326 14.4154 189.391 14.4023 189.469 14.4023C190.276 14.4023 190.719 14.9622 190.797 16.082C190.823 16.3164 190.888 16.4336 190.992 16.4336C191.122 16.4336 191.305 16.1992 191.539 15.7305C191.786 15.2487 192.301 15.0078 193.082 15.0078C193.642 15.0078 193.922 15.3659 193.922 16.082C193.922 16.9284 193.544 17.7292 192.789 18.4844C192.737 18.5885 192.698 18.7057 192.672 18.8359L192.398 19.6367V19.6758C192.398 19.7539 192.34 19.8646 192.223 20.0078C192.118 20.138 192.066 20.2552 192.066 20.3594L192.105 20.8477L192.027 21.3945C192.027 21.6419 192.073 21.8047 192.164 21.8828C192.581 21.7786 192.88 21.6094 193.062 21.375C193.258 21.1276 193.395 20.9909 193.473 20.9648L193.668 20.8867C193.785 20.6914 193.922 20.5286 194.078 20.3984ZM187.594 20.3984C187.646 20.112 187.802 19.8971 188.062 19.7539C188.336 19.5977 188.499 19.4414 188.551 19.2852C188.798 19.1029 189.15 18.7773 189.605 18.3086C190.074 17.8398 190.309 17.5534 190.309 17.4492C190.309 17.4102 190.283 17.3906 190.23 17.3906H190.191L190.035 17.4883L189.684 17.4492L189.312 17.4883L189.039 17.3516L188.785 17.3906L188.395 17.3125C188.186 17.3125 188.004 17.3581 187.848 17.4492C187.704 17.5273 187.418 17.6185 186.988 17.7227C186.572 17.8268 186.194 18.0091 185.855 18.2695C185.517 18.5169 185.27 18.6406 185.113 18.6406C185.022 18.8359 184.716 19.1159 184.195 19.4805C183.883 19.5846 183.681 19.8125 183.59 20.1641C183.251 20.4375 183.082 20.5938 183.082 20.6328L182.945 20.9648C182.841 21.056 182.711 21.1341 182.555 21.1992C182.398 21.2513 182.307 21.388 182.281 21.6094C182.255 21.8177 182.164 22.013 182.008 22.1953C181.865 22.3646 181.793 22.5013 181.793 22.6055C181.793 23.2435 181.917 23.5625 182.164 23.5625C182.268 23.5625 182.483 23.4974 182.809 23.3672C183.147 23.224 183.342 23.1263 183.395 23.0742C183.447 23.0221 183.551 22.9701 183.707 22.918L184.078 22.7227C184.13 22.6706 184.189 22.638 184.254 22.625C184.319 22.612 184.384 22.5729 184.449 22.5078C184.514 22.4297 184.632 22.3516 184.801 22.2734C184.97 22.1823 185.1 22.0651 185.191 21.9219C185.413 21.7917 185.771 21.5898 186.266 21.3164L186.676 21.0039C186.962 20.8737 187.138 20.763 187.203 20.6719C187.268 20.5807 187.398 20.4896 187.594 20.3984ZM200.094 15.9648L200.387 15.8867L200.504 15.6328C201.142 15.2552 201.598 14.8971 201.871 14.5586C201.897 14.5065 201.956 14.4544 202.047 14.4023C202.138 14.3503 202.236 14.2591 202.34 14.1289C202.822 13.6471 203.395 13.4062 204.059 13.4062C204.84 13.4062 205.257 13.8815 205.309 14.832L205.426 15.125C205.53 15.3073 205.673 15.6784 205.855 16.2383C206.051 16.7982 206.148 17.1432 206.148 17.2734C206.148 17.625 206.038 17.9766 205.816 18.3281C205.634 18.4193 205.198 18.9076 204.508 19.793L204.312 19.9297C204.208 20.1641 204.072 20.3984 203.902 20.6328C203.642 20.724 203.512 20.8216 203.512 20.9258V21.2773C203.512 21.3034 203.479 21.3555 203.414 21.4336C203.362 21.5117 203.284 21.6615 203.18 21.8828L203.023 22.1172C202.971 22.1693 202.919 22.2799 202.867 22.4492C202.815 22.6055 202.737 22.7487 202.633 22.8789C202.542 23.0091 202.496 23.1133 202.496 23.1914C202.496 23.3867 202.75 23.4844 203.258 23.4844C203.284 23.4844 203.382 23.4453 203.551 23.3672L203.824 23.4453C203.85 23.4453 203.915 23.4062 204.02 23.3281C204.124 23.237 204.28 23.1654 204.488 23.1133C204.71 23.0612 204.898 22.9831 205.055 22.8789C205.224 22.7747 205.419 22.6836 205.641 22.6055C205.875 22.5273 206.096 22.4036 206.305 22.2344C206.513 22.0521 206.715 21.9219 206.91 21.8438C207.118 21.7656 207.307 21.6484 207.477 21.4922C207.659 21.3229 207.861 21.1667 208.082 21.0234C208.303 20.8802 208.655 20.5677 209.137 20.0859C209.449 19.8385 209.664 19.7018 209.781 19.6758C209.807 19.6758 209.918 19.5065 210.113 19.168C210.322 18.8164 210.556 18.6406 210.816 18.6406C211.09 18.6406 211.227 18.7708 211.227 19.0312C211.227 19.1745 211.161 19.3112 211.031 19.4414V19.5586L211.07 19.8711C211.096 19.9102 211.109 19.9688 211.109 20.0469C211.109 20.099 211.057 20.1771 210.953 20.2812C210.862 20.3854 210.797 20.5221 210.758 20.6914C210.719 20.8477 210.595 20.9518 210.387 21.0039C210.309 21.2904 210.204 21.4531 210.074 21.4922C209.957 21.5312 209.788 21.6615 209.566 21.8828C209.345 22.1042 209.033 22.3646 208.629 22.6641C208.225 22.9635 207.945 23.1979 207.789 23.3672C207.646 23.5234 207.548 23.6016 207.496 23.6016C207.47 23.6016 207.418 23.5755 207.34 23.5234C207.262 23.4714 207.21 23.4453 207.184 23.4453C207.105 23.4453 207.053 23.5365 207.027 23.7188L206.949 23.9141C206.78 24.0182 206.682 24.0703 206.656 24.0703L206.539 24.0312H206.461C206.305 24.0312 206.227 24.0898 206.227 24.207L206.344 24.4023V24.4414C206.344 24.6237 206.24 24.7148 206.031 24.7148C205.888 24.7148 205.471 24.9557 204.781 25.4375L204.215 25.5547L203.746 25.8086C203.59 25.7174 203.492 25.6719 203.453 25.6719L203.141 25.7695L202.574 25.8086C202.561 25.8086 202.32 25.6784 201.852 25.418C201.396 25.1576 201.122 24.8971 201.031 24.6367C200.94 24.3763 200.823 24.1159 200.68 23.8555C200.536 23.582 200.465 23.3932 200.465 23.2891C200.465 22.6641 200.517 22.2214 200.621 21.9609C200.725 21.6875 200.79 21.4857 200.816 21.3555C200.842 21.2253 200.914 21.0885 201.031 20.9453C201.161 20.7891 201.266 20.5417 201.344 20.2031C201.721 19.4479 201.982 18.9857 202.125 18.8164C202.268 18.6471 202.379 18.4388 202.457 18.1914L202.711 17.8398C202.737 17.8138 202.776 17.7161 202.828 17.5469C202.88 17.3646 202.945 17.2604 203.023 17.2344C203.128 17.0521 203.18 16.9349 203.18 16.8828C203.18 16.5052 203.01 16.3164 202.672 16.3164C202.607 16.3164 202.535 16.388 202.457 16.5312C202.379 16.6615 202.197 16.7917 201.91 16.9219C201.637 17.0521 201.467 17.1497 201.402 17.2148C201.337 17.2799 201.194 17.3646 200.973 17.4688C200.764 17.5599 200.582 17.7096 200.426 17.918L200.094 18.0742C199.99 18.3216 199.898 18.4583 199.82 18.4844C199.742 18.5104 199.501 18.5755 199.098 18.6797C199.072 18.6927 199.007 18.7708 198.902 18.9141C198.798 19.0573 198.648 19.1289 198.453 19.1289C198.297 19.2852 198.141 19.4674 197.984 19.6758C197.932 19.6758 197.796 19.7279 197.574 19.832L197.184 19.9297C197.079 20.0078 196.962 20.1315 196.832 20.3008C196.715 20.4701 196.487 20.5547 196.148 20.5547C195.953 20.5547 195.855 20.3984 195.855 20.0859C195.855 19.4479 196.077 18.9401 196.52 18.5625C196.975 18.1849 197.307 17.9831 197.516 17.957C197.724 17.931 197.854 17.8529 197.906 17.7227C197.958 17.5924 198.082 17.4883 198.277 17.4102C198.486 17.319 198.72 17.1302 198.98 16.8438C199.254 16.5443 199.547 16.3424 199.859 16.2383L200.094 15.9648ZM219.117 8.91406L219 8.15234V8.03516C219 7.42318 219.208 7.08464 219.625 7.01953C219.716 7.00651 219.99 6.92188 220.445 6.76562C220.68 6.81771 220.921 7.02604 221.168 7.39062C221.428 7.74219 221.559 8.05469 221.559 8.32812C221.559 8.35417 221.539 8.41276 221.5 8.50391C221.461 8.59505 221.435 8.77083 221.422 9.03125C221.409 9.27865 221.279 9.5 221.031 9.69531C220.797 9.8776 220.543 9.96875 220.27 9.96875C220.087 9.96875 219.853 9.84505 219.566 9.59766C219.293 9.33724 219.143 9.10938 219.117 8.91406ZM210.68 18.6797L210.992 18.4062H211.109C211.201 18.4062 211.337 18.3086 211.52 18.1133L211.715 18.0352C211.975 17.6445 212.203 17.4167 212.398 17.3516L212.711 17.1172C212.763 17.0651 212.835 17.0195 212.926 16.9805C213.03 16.9414 213.186 16.8177 213.395 16.6094C213.616 16.388 213.792 16.2773 213.922 16.2773C214.052 16.2773 214.156 16.2904 214.234 16.3164C214.312 16.1602 214.469 16.0104 214.703 15.8672C214.938 15.7109 215.126 15.5286 215.27 15.3203L215.523 15.2031C215.732 15.099 215.914 14.9688 216.07 14.8125C216.24 14.6432 216.454 14.5586 216.715 14.5586C217.092 14.5586 217.483 14.7539 217.887 15.1445C218.303 15.5221 218.512 15.8867 218.512 16.2383L218.18 17.7617C217.958 18.8815 217.711 19.4674 217.438 19.5195L217.359 19.9297C217.177 20.0599 217.086 20.1641 217.086 20.2422L217.203 20.7109C217.203 20.776 217.132 20.8737 216.988 21.0039C216.962 21.0039 216.949 21.043 216.949 21.1211V21.9219C216.949 22.0651 216.858 22.1823 216.676 22.2734C216.702 22.2995 216.741 22.3255 216.793 22.3516C216.871 22.2734 217.047 22.2344 217.32 22.2344L217.633 22.2734L218.062 21.8438C218.154 21.8177 218.277 21.7591 218.434 21.668C218.603 21.5638 218.883 21.4336 219.273 21.2773L221.832 19.3242C222.184 18.9727 222.451 18.7969 222.633 18.7969C222.828 18.7969 222.926 18.9206 222.926 19.168C222.926 19.4544 222.867 19.6953 222.75 19.8906C222.646 20.0729 222.548 20.3008 222.457 20.5742C222.366 20.8346 222.255 21.0169 222.125 21.1211C222.008 21.2253 221.91 21.3424 221.832 21.4727C221.754 21.5898 221.539 21.7656 221.188 22C220.849 22.2344 220.556 22.4753 220.309 22.7227C220.074 22.957 219.879 23.1263 219.723 23.2305L218.883 23.8359L218.766 24.0312C218.74 24.0573 218.616 24.1159 218.395 24.207C218.186 24.2852 217.997 24.3893 217.828 24.5195L217.477 24.7148C217.398 24.7669 217.268 24.7995 217.086 24.8125C216.917 24.8255 216.767 24.9036 216.637 25.0469C216.507 25.1771 216.402 25.2422 216.324 25.2422L216.031 25.2031L215.641 25.3203C215.419 25.3203 215.146 25.1901 214.82 24.9297C214.508 24.6562 214.352 24.3698 214.352 24.0703V23.9531L214.391 23.6797C214.391 23.6276 214.352 23.4974 214.273 23.2891C214.195 23.0677 214.156 22.944 214.156 22.918L214.195 22.6445L214.156 22.5273C214.156 22.1758 214.182 21.9544 214.234 21.8633C214.286 21.7721 214.326 21.6484 214.352 21.4922C214.378 21.3229 214.404 21.1862 214.43 21.082L214.527 20.5938C214.579 20.4375 214.645 20.3333 214.723 20.2812C214.749 20.1771 214.801 20.0013 214.879 19.7539L214.957 19.4023L215.152 19.1289C215.257 19.0247 215.315 18.888 215.328 18.7188C215.354 18.5365 215.426 18.3477 215.543 18.1523C215.66 17.957 215.719 17.8398 215.719 17.8008C215.719 17.6445 215.641 17.5664 215.484 17.5664C215.432 17.5664 215.27 17.6706 214.996 17.8789L214.645 17.7617C214.618 17.7617 214.547 17.8268 214.43 17.957C214.43 18.0091 214.371 18.0482 214.254 18.0742C214.137 18.1003 214.026 18.1979 213.922 18.3672L213.766 18.4062L213.512 18.2891H213.434C213.303 18.2891 213.225 18.4323 213.199 18.7188C213.056 18.9271 212.867 19.0638 212.633 19.1289L212.203 19.2461C212.06 19.2982 211.956 19.4154 211.891 19.5977C211.826 19.7799 211.695 19.9492 211.5 20.1055C211.305 20.2487 211.174 20.3203 211.109 20.3203C210.745 20.3203 210.562 20.1185 210.562 19.7148L210.719 18.7969L210.68 18.6797ZM228.473 7.80078L228.746 7.72266L228.941 7.52734H228.98L229.156 7.60547H229.195C229.508 7.60547 229.781 7.54688 230.016 7.42969C230.263 7.29948 230.465 7.20833 230.621 7.15625C230.79 7.10417 230.895 7.0651 230.934 7.03906C230.973 7.01302 231.005 7 231.031 7L231.344 7.03906C231.448 7.03906 231.585 6.85677 231.754 6.49219C231.936 6.11458 232.138 5.84115 232.359 5.67188C232.581 5.5026 232.802 5.18359 233.023 4.71484C233.076 4.64974 233.134 4.55208 233.199 4.42188C233.264 4.27865 233.316 4.20703 233.355 4.20703C233.551 4.20703 233.707 4.08333 233.824 3.83594C234.215 3.38021 234.534 3.15234 234.781 3.15234C235.107 3.15234 235.335 3.46484 235.465 4.08984L235.66 4.83203C235.66 4.84505 235.628 4.94271 235.562 5.125C235.497 5.29427 235.465 5.47005 235.465 5.65234C235.478 5.82161 235.471 5.9388 235.445 6.00391C235.432 6.05599 235.426 6.12109 235.426 6.19922C235.426 6.30339 235.536 6.35547 235.758 6.35547C235.836 6.35547 235.979 6.30339 236.188 6.19922L236.305 6.16016C236.435 6.23828 236.546 6.27734 236.637 6.27734C236.663 6.27734 236.845 6.21224 237.184 6.08203C237.535 5.95182 237.757 5.88021 237.848 5.86719C237.939 5.85417 238.095 5.80208 238.316 5.71094H238.551L238.707 5.76953C238.759 5.76953 238.863 5.71745 239.02 5.61328C239.189 5.49609 239.501 5.42448 239.957 5.39844L240.23 5.28125H240.309C240.738 5.28125 240.953 5.47005 240.953 5.84766C240.953 5.92578 240.888 6.0625 240.758 6.25781C240.641 6.45312 240.543 6.67448 240.465 6.92188L239.566 8.05469C239.267 8.44531 238.967 8.64062 238.668 8.64062C238.616 8.64062 238.453 8.46484 238.18 8.11328C238.18 8.08724 238.154 8.07422 238.102 8.07422C237.971 8.07422 237.835 8.10026 237.691 8.15234C237.548 8.20443 237.431 8.23047 237.34 8.23047C237.301 8.23047 236.956 8.32812 236.305 8.52344L235.836 8.60156C235.784 8.60156 235.66 8.6276 235.465 8.67969L234.469 8.875C234.13 9.04427 233.863 9.36328 233.668 9.83203C233.668 9.85807 233.603 9.91667 233.473 10.0078L232.594 11.6094C232.307 11.6875 232.118 11.8568 232.027 12.1172L231.949 12.2344C231.806 12.2604 231.676 12.3451 231.559 12.4883C231.441 12.6185 231.331 12.7227 231.227 12.8008L230.875 13.3281C230.732 13.5104 230.589 13.7122 230.445 13.9336C230.302 14.1419 230.198 14.3698 230.133 14.6172C230.068 14.8516 230.016 14.9883 229.977 15.0273C229.938 15.0664 229.918 15.138 229.918 15.2422L229.859 15.3984C229.703 15.5547 229.625 15.7305 229.625 15.9258L229.703 16.2383C229.521 16.8633 229.43 17.1953 229.43 17.2344C229.43 17.2604 229.443 17.332 229.469 17.4492V17.5664C229.469 17.8529 229.365 18.2109 229.156 18.6406L229.195 18.9531L229.078 19.832C229.078 19.9492 229.117 20.1641 229.195 20.4766C229.143 20.5286 229.117 20.5677 229.117 20.5938C229.117 20.9583 229.306 21.362 229.684 21.8047C230.074 22.2344 230.27 22.9115 230.27 23.8359C230.27 23.9141 230.25 24.0312 230.211 24.1875C230.172 24.3307 230.146 24.4935 230.133 24.6758C230.12 24.8451 230.016 25.0143 229.82 25.1836C229.638 25.3529 229.482 25.4375 229.352 25.4375C228.661 25.4375 228.147 24.9362 227.809 23.9336C227.47 22.931 227.301 22.2865 227.301 22L227.34 21.2383L227.223 20.8477L227.34 19.1289L227.262 18.7188L227.711 17.0391V16.4336C227.711 16.4076 227.802 16.3034 227.984 16.1211C227.984 16.0951 227.958 16.082 227.906 16.082C227.828 16.082 227.724 16.1602 227.594 16.3164C227.464 16.4727 227.301 16.6224 227.105 16.7656L226.949 17.0391C226.923 17.013 226.871 16.987 226.793 16.9609C226.728 16.987 226.513 17.293 226.148 17.8789C225.875 17.918 225.66 18.0742 225.504 18.3477C225.348 18.6211 225.133 18.7578 224.859 18.7578L224.781 18.7969C224.729 19.1745 224.547 19.3633 224.234 19.3633L224.156 19.4023C223.961 19.8451 223.759 20.0599 223.551 20.0469C223.421 20.4375 223.102 20.7044 222.594 20.8477C222.516 21.0039 222.405 21.1211 222.262 21.1992C222.105 21.2773 221.995 21.349 221.93 21.4141C221.865 21.4792 221.806 21.5117 221.754 21.5117C221.585 21.5117 221.5 21.3294 221.5 20.9648C221.5 20.8607 221.546 20.75 221.637 20.6328C221.715 20.5026 221.754 20.4115 221.754 20.3594C221.754 20.3333 221.689 20.2552 221.559 20.125C221.559 19.7214 221.663 19.4674 221.871 19.3633C222.079 19.2591 222.236 19.1094 222.34 18.9141C222.405 18.7578 222.535 18.6471 222.73 18.582C222.926 18.5169 223.023 18.4323 223.023 18.3281C223.023 18.237 223.193 18.0547 223.531 17.7812C223.87 17.5078 224.117 17.2734 224.273 17.0781C224.43 16.8698 224.56 16.7656 224.664 16.7656L224.742 16.6875C224.768 16.362 224.892 16.1992 225.113 16.1992L225.309 16.082L225.348 15.9258L225.465 15.8477H225.621L225.719 15.7695C225.745 15.444 225.895 15.1901 226.168 15.0078C226.454 14.8255 226.969 14.3177 227.711 13.4844C228.453 12.638 228.87 12.0977 228.961 11.8633C229.052 11.6289 229.215 11.3164 229.449 10.9258C229.697 10.5221 229.833 10.1445 229.859 9.79297C229.833 9.74089 229.794 9.6888 229.742 9.63672L228.902 10.0469C228.902 10.0078 228.772 9.94922 228.512 9.87109C228.316 9.98828 228.173 10.1055 228.082 10.2227C227.991 10.3398 227.919 10.3984 227.867 10.3984L227.594 10.3594L226.734 10.457C225.966 10.5221 225.387 10.6784 224.996 10.9258L224.195 11.1602H224.02C223.915 11.1602 223.759 11.2253 223.551 11.3555L223.102 11.3164C222.685 11.5378 222.379 11.6484 222.184 11.6484C222.158 11.6484 222.079 11.6354 221.949 11.6094L219.957 12.1562C219.801 12.2083 219.449 12.4753 218.902 12.957L218.746 12.9961C218.616 12.9961 218.466 12.8529 218.297 12.5664C218.115 12.2669 218.023 12 218.023 11.7656C218.023 10.4766 219.13 9.72786 221.344 9.51953L222.145 9.20703H222.184L222.398 9.28516H222.477C222.555 9.28516 222.678 9.23958 222.848 9.14844C223.017 9.04427 223.395 8.92057 223.98 8.77734L224.781 8.5625L225.035 8.60156C225.165 8.60156 225.309 8.54948 225.465 8.44531C225.634 8.34115 225.882 8.26953 226.207 8.23047C226.546 8.17839 226.78 8.1263 226.91 8.07422L227.223 7.99609C227.275 7.99609 227.379 7.95052 227.535 7.85938C227.704 7.76823 227.919 7.72266 228.18 7.72266C228.219 7.72266 228.316 7.7487 228.473 7.80078Z" fill="#2C79CD"/>
</svg>
